<?xml version="1.0" encoding="UTF-8" standalone="no"?><svg xmlns="http://www.w3.org/2000/svg" xmlns:xlink="http://www.w3.org/1999/xlink" contentScriptType="text/ecmascript" fill="none" width="848" zoomAndPan="magnify" style="fill: none" contentStyleType="text/css" viewBox="0 0 848 848" height="848" preserveAspectRatio="xMidYMid meet" version="1"><g filter="url(#a)"><g filter="url(#b)"><path fill="url(#c)" d="M105.477 410.794C105.477 420.894 97.2771 429.094 87.2771 429.094H43.4771V392.594H87.2771C97.3771 392.494 105.477 400.694 105.477 410.794Z"/></g><g filter="url(#d)"><path fill="url(#e)" d="M805.477 392.494V428.994H761.777C751.677 428.994 743.577 420.794 743.577 410.794C743.577 400.694 751.777 392.594 761.777 392.594H805.477V392.494Z"/></g><g filter="url(#f)"><path fill="url(#g)" d="M406.277 756.994V789.094V791.794H442.777V789.094V756.994"/></g><g filter="url(#h)"><path fill="url(#i)" d="M442.777 59.1942V29.6942H406.277V59.1942"/></g><g filter="url(#j)"><path fill="url(#k)" d="M804.677 348.794L804.577 347.994L803.877 347.694C794.377 342.894 784.077 340.394 773.377 340.394C772.377 340.394 771.477 340.394 770.477 340.494V270.294H767.477V331.594C757.177 300.494 736.577 273.894 708.677 255.894V219.894H705.677V253.994C682.977 240.094 657.077 232.794 630.377 232.794H599.777V202.194C599.777 136.394 555.577 79.0942 492.077 62.3942C492.177 61.2942 492.177 60.1942 492.177 59.1942C492.177 48.4942 489.777 38.1942 484.877 28.6942L484.577 27.9942L483.777 27.8942C474.377 26.3942 464.777 25.5942 455.277 25.5942H393.677C384.077 25.5942 374.477 26.3942 365.177 27.8942L364.377 27.9942L364.077 28.6942C359.277 38.1942 356.777 48.4942 356.777 59.1942C356.777 60.2942 356.777 61.3942 356.877 62.3942C293.377 78.9942 249.177 136.294 249.177 202.194V232.794H218.577C191.877 232.794 165.877 240.094 143.277 253.994V219.894H140.277V255.894C112.377 273.894 91.7771 300.494 81.4771 331.594V270.294H78.4771V340.494C77.4771 340.494 76.5771 340.394 75.5771 340.394C64.8771 340.394 54.5771 342.794 45.0771 347.694L44.3772 347.994L44.2771 348.794C42.7771 358.194 41.9771 367.794 41.9771 377.294V438.894C41.9771 448.494 42.7771 458.094 44.2771 467.394L44.3772 468.194L45.0771 468.494C54.5771 473.294 64.8771 475.794 75.5771 475.794C76.5771 475.794 77.4771 475.794 78.4771 475.694V545.894H81.4771V484.594C91.7771 515.694 112.377 542.294 140.277 560.294V599.694H143.277V562.094C165.877 575.894 191.877 583.294 218.577 583.294H249.177V613.894C249.177 679.694 293.377 736.994 356.877 753.694C356.777 754.794 356.777 755.894 356.777 756.894C356.777 767.594 359.177 777.894 364.077 787.394L364.377 788.094L365.177 788.194C374.577 789.694 384.177 790.494 393.677 790.494H404.677V793.194H444.177V790.494H455.177C464.677 790.494 474.277 789.694 483.677 788.194L484.477 788.094L484.777 787.394C489.577 777.894 492.077 767.594 492.077 756.894C492.077 755.794 492.077 754.694 491.977 753.594C555.477 736.894 599.677 679.594 599.677 613.894V583.294H630.277C656.977 583.294 682.977 575.994 705.577 562.094V599.694H708.577V560.294C736.477 542.294 757.077 515.694 767.377 484.594V545.894H770.377V475.694C771.377 475.694 772.277 475.794 773.277 475.794C783.977 475.794 794.277 473.394 803.777 468.494L804.477 468.194L804.577 467.394C806.077 457.994 806.877 448.394 806.877 438.894V377.294C806.977 367.694 806.277 358.094 804.677 348.794ZM770.577 358.094C770.677 358.694 770.777 359.394 770.877 359.994C770.977 360.794 771.077 361.594 771.177 362.494C771.277 363.094 771.277 363.694 771.377 364.294C771.477 365.194 771.477 365.994 771.577 366.894C771.577 367.494 771.677 367.994 771.677 368.594C771.777 369.594 771.777 370.494 771.777 371.494C771.777 371.994 771.777 372.494 771.877 372.894C771.877 374.294 771.977 375.794 771.977 377.294V390.994H761.777C750.877 390.994 741.977 399.894 741.977 410.794C741.977 421.694 750.877 430.594 761.777 430.594H771.977V438.994C771.977 440.394 771.977 441.894 771.877 443.294C771.877 443.794 771.877 444.294 771.777 444.794C771.777 445.794 771.677 446.694 771.677 447.694C771.677 448.294 771.577 448.894 771.577 449.394C771.477 450.294 771.477 451.094 771.377 451.994C771.277 452.594 771.277 453.194 771.177 453.794C771.077 454.594 770.977 455.394 770.877 456.294C770.777 456.894 770.677 457.594 770.577 458.194C770.477 458.994 770.377 459.794 770.277 460.594C770.177 461.194 770.077 461.894 769.977 462.494C769.877 463.294 769.677 464.094 769.577 464.794C769.477 465.494 769.277 466.094 769.177 466.794C768.977 467.594 768.877 468.294 768.677 469.094C768.577 469.794 768.377 470.394 768.277 471.094C768.177 471.594 767.977 472.194 767.877 472.694C734.677 469.894 708.777 441.894 708.677 408.394V408.194C708.777 374.694 734.577 346.694 767.777 343.894C767.877 344.394 767.977 344.894 768.177 345.394C768.377 346.094 768.477 346.794 768.677 347.394C768.877 348.094 768.977 348.894 769.177 349.594C769.277 350.294 769.477 350.894 769.577 351.594C769.677 352.394 769.877 353.094 769.977 353.894C770.077 354.594 770.177 355.194 770.277 355.894C770.377 356.494 770.477 357.294 770.577 358.094ZM767.077 340.694C739.377 343.294 716.577 362.594 708.677 388.194V259.494C737.577 278.694 758.177 307.394 767.077 340.694ZM366.377 30.6942C375.377 29.2942 384.577 28.5942 393.677 28.5942H455.277C464.477 28.5942 473.577 29.2942 482.577 30.6942C486.977 39.5942 489.177 49.1942 489.177 59.1942C489.177 59.9942 489.177 60.8942 489.077 61.6942C478.077 59.0942 466.677 57.6942 455.277 57.6942H393.677C382.277 57.6942 370.877 59.0942 359.877 61.6942C359.877 60.8942 359.777 59.9942 359.777 59.1942C359.777 49.1942 362.077 39.5942 366.377 30.6942ZM81.177 472.594C81.077 471.994 80.8771 471.494 80.7771 470.894C80.6771 470.294 80.4772 469.694 80.3772 468.994C80.1772 468.194 80.0772 467.394 79.8772 466.694C79.7772 466.094 79.5771 465.394 79.4771 464.794C79.3771 463.994 79.1771 463.194 79.0771 462.394C78.9771 461.794 78.8771 461.094 78.7771 460.494C78.6771 459.694 78.5771 458.894 78.4771 458.094C78.3771 457.494 78.277 456.794 78.177 456.194C78.077 455.394 77.9772 454.594 77.8772 453.694C77.7772 453.094 77.777 452.494 77.677 451.894C77.577 450.994 77.5771 450.194 77.4771 449.294C77.4771 448.694 77.3772 448.094 77.3772 447.594C77.2772 446.594 77.2771 445.694 77.2771 444.694C77.2771 444.194 77.177 443.694 77.177 443.194C77.177 441.794 77.0771 440.294 77.0771 438.894V430.494H87.2771C98.1771 430.494 107.077 421.594 107.077 410.694C107.077 399.794 98.1771 390.894 87.2771 390.894H77.0771V377.194C77.0771 375.794 77.077 374.294 77.177 372.894C77.177 372.394 77.1771 371.894 77.2771 371.394C77.2771 370.394 77.3772 369.494 77.3772 368.494C77.3772 367.894 77.4771 367.294 77.4771 366.794C77.5771 365.894 77.577 365.094 77.677 364.194C77.777 363.594 77.7772 362.994 77.8772 362.394C77.9772 361.594 78.077 360.794 78.177 359.894C78.277 359.294 78.3771 358.594 78.4771 357.994C78.5771 357.194 78.6771 356.394 78.7771 355.594C78.8771 354.994 78.9771 354.294 79.0771 353.694C79.1771 352.894 79.3771 352.094 79.4771 351.294C79.5771 350.694 79.6772 349.994 79.8772 349.394C80.0772 348.594 80.1772 347.794 80.3772 347.094C80.4772 346.494 80.6771 345.894 80.7771 345.194C80.8771 344.594 81.077 344.094 81.177 343.494C114.377 346.294 140.277 374.294 140.377 407.794V408.094C140.177 441.794 114.377 469.694 81.177 472.594ZM140.277 259.394V388.194C132.377 362.594 109.577 343.294 81.8772 340.694C90.7772 307.394 111.377 278.594 140.277 259.394ZM75.5771 472.794C65.5771 472.794 55.9771 470.594 47.0771 466.194C45.6771 457.194 44.9771 447.994 44.9771 438.894V377.294C44.9771 368.194 45.6771 358.994 47.0771 349.994C55.9771 345.594 65.5771 343.394 75.5771 343.394C76.3771 343.394 77.2771 343.394 78.0771 343.394C77.9771 343.894 77.8771 344.294 77.7771 344.794C77.5771 345.494 77.4772 346.094 77.3772 346.794C77.1772 347.594 77.0772 348.294 76.8772 349.094C76.7772 349.794 76.5771 350.394 76.4771 351.094C76.3771 351.894 76.1771 352.694 76.0771 353.494C75.9771 354.194 75.8771 354.794 75.7771 355.494C75.6771 356.294 75.5771 357.094 75.4771 357.894C75.3771 358.494 75.277 359.194 75.177 359.794C75.077 360.594 74.9772 361.494 74.8772 362.294C74.7772 362.894 74.777 363.494 74.677 364.194C74.577 365.094 74.5771 365.994 74.4771 366.794C74.4771 367.394 74.3772 367.994 74.3772 368.594C74.2772 369.594 74.2771 370.494 74.2771 371.494C74.2771 371.994 74.277 372.494 74.177 372.994C74.177 374.494 74.0771 375.894 74.0771 377.394V394.094H87.2771C96.4771 394.094 104.077 401.594 104.077 410.894C104.077 420.194 96.5771 427.694 87.2771 427.694H74.0771V438.894C74.0771 440.394 74.077 441.794 74.177 443.294C74.177 443.794 74.1771 444.294 74.2771 444.794C74.2771 445.794 74.3772 446.694 74.3772 447.694C74.3772 448.294 74.4771 448.894 74.4771 449.494C74.5771 450.394 74.577 451.194 74.677 452.094C74.777 452.694 74.7772 453.394 74.8772 453.994C74.9772 454.794 75.077 455.694 75.177 456.494C75.277 457.094 75.3771 457.794 75.4771 458.394C75.5771 459.194 75.6771 459.994 75.7771 460.794C75.8771 461.494 75.9771 462.094 76.0771 462.794C76.1771 463.594 76.3771 464.394 76.4771 465.194C76.5771 465.894 76.7772 466.494 76.8772 467.194C77.0772 467.994 77.1772 468.694 77.3772 469.494C77.4772 470.194 77.6771 470.794 77.7771 471.494C77.8771 471.994 77.9771 472.394 78.0771 472.894C77.2771 472.794 76.3771 472.794 75.5771 472.794ZM81.8772 475.494C109.677 472.894 132.377 453.594 140.277 427.994V556.794C111.377 537.594 90.7772 508.894 81.8772 475.494ZM482.577 785.494C473.577 786.894 464.377 787.594 455.277 787.594H441.277V790.294H407.777V787.594H393.777C384.677 787.594 375.477 786.894 366.477 785.494C362.077 776.594 359.877 766.994 359.877 756.994C359.877 756.194 359.877 755.294 359.977 754.494C370.977 757.094 382.377 758.494 393.777 758.494H455.377C466.777 758.494 478.177 757.094 489.177 754.494C489.177 755.294 489.277 756.194 489.277 756.994C489.177 766.994 486.977 776.594 482.577 785.494ZM630.377 580.394H596.777V613.994C596.777 678.794 552.977 735.194 490.177 751.094C478.877 753.994 467.077 755.494 455.277 755.494H393.677C381.877 755.494 370.177 753.994 358.777 751.194C295.977 735.294 252.177 678.894 252.177 613.994V580.394H218.577C191.777 580.394 165.777 572.894 143.277 558.694V408.294C143.277 408.194 143.277 408.194 143.277 408.094C143.277 407.994 143.277 407.994 143.277 407.894V257.494C165.777 243.294 191.777 235.794 218.577 235.794H252.177V202.194C252.177 137.294 295.977 80.8942 358.777 64.9942C370.077 62.0942 381.877 60.6942 393.677 60.6942H455.277C467.077 60.6942 478.777 62.1942 490.177 64.9942C552.977 80.8942 596.777 137.294 596.777 202.194V235.794H630.377C657.077 235.794 683.177 243.294 705.677 257.594V407.994V408.094V408.194V558.694C683.177 572.894 657.177 580.394 630.377 580.394ZM708.677 556.794V427.994C716.577 453.594 739.377 472.894 767.077 475.494C758.277 508.894 737.577 537.594 708.677 556.794ZM803.977 438.894C803.977 448.094 803.277 457.194 801.877 466.194C792.977 470.594 783.377 472.794 773.377 472.794C772.577 472.794 771.677 472.794 770.877 472.794C770.977 472.294 771.077 471.894 771.177 471.394C771.377 470.694 771.477 470.094 771.577 469.394C771.777 468.594 771.877 467.894 772.077 467.094C772.177 466.394 772.377 465.794 772.477 465.094C772.577 464.294 772.777 463.494 772.877 462.694C772.977 461.994 773.077 461.394 773.177 460.694C773.277 459.894 773.377 459.094 773.477 458.294C773.577 457.694 773.677 456.994 773.777 456.394C773.877 455.594 773.977 454.694 774.077 453.894C774.177 453.294 774.177 452.594 774.277 451.994C774.377 451.094 774.377 450.294 774.477 449.394C774.477 448.794 774.577 448.194 774.577 447.594C774.677 446.594 774.677 445.694 774.677 444.694C774.677 444.194 774.677 443.694 774.777 443.194C774.777 441.694 774.877 440.294 774.877 438.794V427.394H761.777C752.577 427.394 744.977 419.894 744.977 410.594C744.977 401.294 752.477 393.794 761.777 393.794H774.977V377.094C774.977 375.594 774.977 374.194 774.877 372.694C774.877 372.194 774.877 371.694 774.777 371.194C774.777 370.194 774.677 369.194 774.677 368.294C774.677 367.694 774.577 367.094 774.577 366.494C774.477 365.594 774.477 364.694 774.377 363.894C774.277 363.294 774.277 362.694 774.177 361.994C774.077 361.194 773.977 360.294 773.877 359.494C773.777 358.894 773.677 358.194 773.577 357.594C773.477 356.794 773.377 355.994 773.277 355.194C773.177 354.594 773.077 353.894 772.977 353.294C772.877 352.494 772.677 351.694 772.577 350.894C772.477 350.294 772.377 349.594 772.177 348.994C771.977 348.194 771.877 347.394 771.677 346.594C771.577 345.994 771.377 345.294 771.277 344.694C771.177 344.194 771.077 343.794 770.977 343.294C771.777 343.294 772.677 343.294 773.477 343.294C783.477 343.294 793.077 345.494 801.977 349.894C803.377 358.894 804.077 367.994 804.077 377.194V438.894H803.977Z"/></g><g filter="url(#l)"><path fill="url(#m)" d="M455.277 795.594H393.677C383.877 795.594 373.977 794.794 364.377 793.194C326.677 787.094 292.477 769.494 265.277 742.394C232.477 709.594 213.777 666.494 212.177 620.394C186.577 619.494 161.877 613.394 138.877 602.094C85.977 576.194 48.6769 526.194 39.2769 468.194C37.6769 458.594 36.877 448.694 36.877 438.894V377.294C36.877 367.494 37.6769 357.594 39.2769 347.994C45.3769 310.294 62.9769 276.094 90.0769 248.894C104.377 234.594 120.777 222.894 138.877 214.094C161.877 202.794 186.477 196.694 212.177 195.794C213.577 154.694 228.977 115.194 255.777 83.9942C283.677 51.4942 322.177 29.7942 364.277 22.9942C373.877 21.3942 383.777 20.5942 393.577 20.5942H455.177C464.977 20.5942 474.877 21.3942 484.477 22.9942C526.577 29.7942 565.077 51.4942 592.977 83.9942C619.777 115.294 635.177 154.694 636.577 195.794C662.177 196.694 686.877 202.794 709.877 214.094C762.777 239.994 800.077 289.994 809.477 347.994C811.077 357.594 811.877 367.494 811.877 377.294V438.894C811.877 448.694 811.077 458.594 809.477 468.194C803.377 505.894 785.777 540.094 758.677 567.294C744.377 581.594 727.977 593.294 709.877 602.094C686.877 613.394 662.277 619.494 636.577 620.394C635.177 661.494 619.777 700.994 592.977 732.194C565.077 764.694 526.577 786.394 484.477 793.194C474.977 794.794 465.077 795.594 455.277 795.594ZM218.577 208.694C192.677 208.694 167.777 214.394 144.677 225.694C127.877 233.894 112.677 244.794 99.377 257.994C74.177 283.194 57.8768 314.994 52.1768 349.994C50.6768 358.894 49.9768 368.094 49.9768 377.294V438.894C49.9768 447.994 50.6768 457.194 52.1768 466.194C60.8768 519.994 95.4768 566.494 144.677 590.494C167.777 601.794 192.677 607.494 218.577 607.494H225.077V613.994C225.077 658.994 242.577 701.394 274.477 733.194C299.677 758.394 331.477 774.694 366.477 780.394C375.477 781.894 384.577 782.594 393.777 782.594H455.377C464.477 782.594 473.677 781.894 482.677 780.394C521.677 774.094 557.477 753.894 583.377 723.694C609.577 693.194 623.977 654.194 623.977 613.894V607.394H630.477C656.377 607.394 681.277 601.694 704.377 590.394C721.177 582.194 736.377 571.294 749.677 558.094C774.877 532.894 791.177 501.094 796.877 466.094C798.377 457.194 799.077 447.994 799.077 438.794V377.194C799.077 368.094 798.377 358.894 796.877 349.894C788.177 296.094 753.577 249.594 704.377 225.594C681.277 214.294 656.377 208.594 630.477 208.594H623.977V202.094C623.977 161.794 609.577 122.794 583.377 92.2942C557.477 62.0942 521.677 41.9942 482.677 35.6942C473.777 34.1942 464.577 33.4942 455.377 33.4942H393.777C384.677 33.4942 375.477 34.1942 366.477 35.6942C327.477 41.9942 291.677 62.1942 265.777 92.2942C239.577 122.794 225.177 161.794 225.177 202.094V208.594H218.577V208.694Z"/></g></g><defs><filter x="0.877" color-interpolation-filters="sRGB" y="0.594" width="847" xlink:type="simple" filterUnits="userSpaceOnUse" xlink:actuate="onLoad" id="a" height="847" xlink:show="other"><feFlood result="BackgroundImageFix" flood-opacity="0"/><feColorMatrix values="0 0 0 0 0 0 0 0 0 0 0 0 0 0 0 0 0 0 127 0" result="hardAlpha" in="SourceAlpha"/><feOffset dy="16"/><feGaussianBlur stdDeviation="18"/><feComposite in2="hardAlpha" operator="out"/><feColorMatrix values="0 0 0 0 0 0 0 0 0 0 0 0 0 0 0 0 0 0 0.25 0"/><feBlend result="effect1_dropShadow_13_2671" in2="BackgroundImageFix"/><feBlend result="shape" in2="effect1_dropShadow_13_2671" in="SourceGraphic"/></filter><filter x="43.477" color-interpolation-filters="sRGB" y="390.593" width="63" xlink:type="simple" filterUnits="userSpaceOnUse" xlink:actuate="onLoad" id="b" height="39.501" xlink:show="other"><feFlood result="BackgroundImageFix" flood-opacity="0"/><feBlend result="shape" in2="BackgroundImageFix" in="SourceGraphic"/><feColorMatrix values="0 0 0 0 0 0 0 0 0 0 0 0 0 0 0 0 0 0 127 0" result="hardAlpha" in="SourceAlpha"/><feOffset dx="1" dy="3"/><feGaussianBlur stdDeviation="0.5"/><feComposite k2="-1" k3="1" operator="arithmetic" in2="hardAlpha"/><feColorMatrix values="0 0 0 0 1 0 0 0 0 1 0 0 0 0 1 0 0 0 0.43 0"/><feBlend result="effect1_innerShadow_13_2671" in2="shape"/><feColorMatrix values="0 0 0 0 0 0 0 0 0 0 0 0 0 0 0 0 0 0 127 0" result="hardAlpha" in="SourceAlpha"/><feOffset dy="-2"/><feGaussianBlur stdDeviation="1.5"/><feComposite k2="-1" k3="1" operator="arithmetic" in2="hardAlpha"/><feColorMatrix values="0 0 0 0 0.670833 0 0 0 0 0.351615 0 0 0 0 0.122986 0 0 0 0.54 0"/><feBlend result="effect2_innerShadow_13_2671" in2="effect1_innerShadow_13_2671"/></filter><filter x="743.577" color-interpolation-filters="sRGB" y="390.494" width="62.9" xlink:type="simple" filterUnits="userSpaceOnUse" xlink:actuate="onLoad" id="d" height="39.5" xlink:show="other"><feFlood result="BackgroundImageFix" flood-opacity="0"/><feBlend result="shape" in2="BackgroundImageFix" in="SourceGraphic"/><feColorMatrix values="0 0 0 0 0 0 0 0 0 0 0 0 0 0 0 0 0 0 127 0" result="hardAlpha" in="SourceAlpha"/><feOffset dx="1" dy="3"/><feGaussianBlur stdDeviation="0.5"/><feComposite k2="-1" k3="1" operator="arithmetic" in2="hardAlpha"/><feColorMatrix values="0 0 0 0 1 0 0 0 0 1 0 0 0 0 1 0 0 0 0.43 0"/><feBlend result="effect1_innerShadow_13_2671" in2="shape"/><feColorMatrix values="0 0 0 0 0 0 0 0 0 0 0 0 0 0 0 0 0 0 127 0" result="hardAlpha" in="SourceAlpha"/><feOffset dy="-2"/><feGaussianBlur stdDeviation="1.5"/><feComposite k2="-1" k3="1" operator="arithmetic" in2="hardAlpha"/><feColorMatrix values="0 0 0 0 0.670833 0 0 0 0 0.351615 0 0 0 0 0.122986 0 0 0 0.54 0"/><feBlend result="effect2_innerShadow_13_2671" in2="effect1_innerShadow_13_2671"/></filter><filter x="406.277" color-interpolation-filters="sRGB" y="754.994" width="37.5" xlink:type="simple" filterUnits="userSpaceOnUse" xlink:actuate="onLoad" id="f" height="37.8" xlink:show="other"><feFlood result="BackgroundImageFix" flood-opacity="0"/><feBlend result="shape" in2="BackgroundImageFix" in="SourceGraphic"/><feColorMatrix values="0 0 0 0 0 0 0 0 0 0 0 0 0 0 0 0 0 0 127 0" result="hardAlpha" in="SourceAlpha"/><feOffset dx="1" dy="3"/><feGaussianBlur stdDeviation="0.5"/><feComposite k2="-1" k3="1" operator="arithmetic" in2="hardAlpha"/><feColorMatrix values="0 0 0 0 1 0 0 0 0 1 0 0 0 0 1 0 0 0 0.43 0"/><feBlend result="effect1_innerShadow_13_2671" in2="shape"/><feColorMatrix values="0 0 0 0 0 0 0 0 0 0 0 0 0 0 0 0 0 0 127 0" result="hardAlpha" in="SourceAlpha"/><feOffset dy="-2"/><feGaussianBlur stdDeviation="1.5"/><feComposite k2="-1" k3="1" operator="arithmetic" in2="hardAlpha"/><feColorMatrix values="0 0 0 0 0.670833 0 0 0 0 0.351615 0 0 0 0 0.122986 0 0 0 0.54 0"/><feBlend result="effect2_innerShadow_13_2671" in2="effect1_innerShadow_13_2671"/></filter><filter x="406.277" color-interpolation-filters="sRGB" y="27.694" width="37.5" xlink:type="simple" filterUnits="userSpaceOnUse" xlink:actuate="onLoad" id="h" height="32.5" xlink:show="other"><feFlood result="BackgroundImageFix" flood-opacity="0"/><feBlend result="shape" in2="BackgroundImageFix" in="SourceGraphic"/><feColorMatrix values="0 0 0 0 0 0 0 0 0 0 0 0 0 0 0 0 0 0 127 0" result="hardAlpha" in="SourceAlpha"/><feOffset dx="1" dy="3"/><feGaussianBlur stdDeviation="0.5"/><feComposite k2="-1" k3="1" operator="arithmetic" in2="hardAlpha"/><feColorMatrix values="0 0 0 0 1 0 0 0 0 1 0 0 0 0 1 0 0 0 0.43 0"/><feBlend result="effect1_innerShadow_13_2671" in2="shape"/><feColorMatrix values="0 0 0 0 0 0 0 0 0 0 0 0 0 0 0 0 0 0 127 0" result="hardAlpha" in="SourceAlpha"/><feOffset dy="-2"/><feGaussianBlur stdDeviation="1.5"/><feComposite k2="-1" k3="1" operator="arithmetic" in2="hardAlpha"/><feColorMatrix values="0 0 0 0 0.670833 0 0 0 0 0.351615 0 0 0 0 0.122986 0 0 0 0.54 0"/><feBlend result="effect2_innerShadow_13_2671" in2="effect1_innerShadow_13_2671"/></filter><filter x="38.977" color-interpolation-filters="sRGB" y="24.594" width="770.91" xlink:type="simple" filterUnits="userSpaceOnUse" xlink:actuate="onLoad" id="j" height="774.6" xlink:show="other"><feFlood result="BackgroundImageFix" flood-opacity="0"/><feColorMatrix values="0 0 0 0 0 0 0 0 0 0 0 0 0 0 0 0 0 0 127 0" result="hardAlpha" in="SourceAlpha"/><feOffset dy="3"/><feGaussianBlur stdDeviation="1.5"/><feComposite in2="hardAlpha" operator="out"/><feColorMatrix values="0 0 0 0 0 0 0 0 0 0 0 0 0 0 0 0 0 0 0.25 0"/><feBlend result="effect1_dropShadow_13_2671" in2="BackgroundImageFix"/><feBlend result="shape" in2="effect1_dropShadow_13_2671" in="SourceGraphic"/><feColorMatrix values="0 0 0 0 0 0 0 0 0 0 0 0 0 0 0 0 0 0 127 0" result="hardAlpha" in="SourceAlpha"/><feOffset dx="1" dy="1"/><feGaussianBlur stdDeviation="0.5"/><feComposite k2="-1" k3="1" operator="arithmetic" in2="hardAlpha"/><feColorMatrix values="0 0 0 0 1 0 0 0 0 1 0 0 0 0 1 0 0 0 0.43 0"/><feBlend result="effect2_innerShadow_13_2671" in2="shape"/><feColorMatrix values="0 0 0 0 0 0 0 0 0 0 0 0 0 0 0 0 0 0 127 0" result="hardAlpha" in="SourceAlpha"/><feOffset dy="-1"/><feGaussianBlur stdDeviation="0.5"/><feComposite k2="-1" k3="1" operator="arithmetic" in2="hardAlpha"/><feColorMatrix values="0 0 0 0 0.670833 0 0 0 0 0.351615 0 0 0 0 0.122986 0 0 0 0.54 0"/><feBlend result="effect3_innerShadow_13_2671" in2="effect2_innerShadow_13_2671"/></filter><filter x="36.877" color-interpolation-filters="sRGB" y="17.594" width="776" xlink:type="simple" filterUnits="userSpaceOnUse" xlink:actuate="onLoad" id="l" height="779" xlink:show="other"><feFlood result="BackgroundImageFix" flood-opacity="0"/><feBlend result="shape" in2="BackgroundImageFix" in="SourceGraphic"/><feColorMatrix values="0 0 0 0 0 0 0 0 0 0 0 0 0 0 0 0 0 0 127 0" result="hardAlpha" in="SourceAlpha"/><feOffset dx="1" dy="3"/><feGaussianBlur stdDeviation="0.5"/><feComposite k2="-1" k3="1" operator="arithmetic" in2="hardAlpha"/><feColorMatrix values="0 0 0 0 1 0 0 0 0 1 0 0 0 0 1 0 0 0 0.43 0"/><feBlend result="effect1_innerShadow_13_2671" in2="shape"/><feColorMatrix values="0 0 0 0 0 0 0 0 0 0 0 0 0 0 0 0 0 0 127 0" result="hardAlpha" in="SourceAlpha"/><feOffset dy="-4"/><feGaussianBlur stdDeviation="1.5"/><feComposite k2="-1" k3="1" operator="arithmetic" in2="hardAlpha"/><feColorMatrix values="0 0 0 0 0.670833 0 0 0 0 0.351615 0 0 0 0 0.122986 0 0 0 0.71 0"/><feBlend result="effect2_innerShadow_13_2671" in2="effect1_innerShadow_13_2671"/></filter><linearGradient x1="102.125" y1="393.817" x2="82.144" gradientUnits="userSpaceOnUse" y2="439.697" xlink:type="simple" xlink:actuate="onLoad" id="c" xlink:show="other"><stop stop-color="#e0925a"/><stop stop-color="#ffe6d9" offset="0.512"/><stop stop-color="#e0925a" offset="1"/></linearGradient><linearGradient x1="802.13" y1="393.717" x2="782.128" gradientUnits="userSpaceOnUse" y2="439.573" xlink:type="simple" xlink:actuate="onLoad" id="e" xlink:show="other"><stop stop-color="#e0925a"/><stop stop-color="#ffe6d9" offset="0.512"/><stop stop-color="#e0925a" offset="1"/></linearGradient><linearGradient x1="440.803" y1="758.16" x2="416.293" gradientUnits="userSpaceOnUse" y2="792.912" xlink:type="simple" xlink:actuate="onLoad" id="g" xlink:show="other"><stop stop-color="#e0925a"/><stop stop-color="#ffe6d9" offset="0.512"/><stop stop-color="#e0925a" offset="1"/></linearGradient><linearGradient x1="440.803" y1="30.683" x2="421.374" gradientUnits="userSpaceOnUse" y2="63.18" xlink:type="simple" xlink:actuate="onLoad" id="i" xlink:show="other"><stop stop-color="#e0925a"/><stop stop-color="#ffe6d9" offset="0.512"/><stop stop-color="#e0925a" offset="1"/></linearGradient><linearGradient x1="700.048" y1="151.569" x2="807.546" gradientUnits="userSpaceOnUse" y2="630.268" xlink:type="simple" xlink:actuate="onLoad" id="k" xlink:show="other"><stop stop-color="#e0925a"/><stop stop-color="#ffe6d9" offset="0.125"/><stop stop-color="#e0925a" offset="0.307"/><stop stop-color="#ffe6d9" offset="0.495"/><stop stop-color="#e0925a" offset="0.693"/><stop stop-color="#ffe6d9" offset="0.885"/><stop stop-color="#e0925a" offset="1"/></linearGradient><linearGradient x1="424.377" y1="32.803" x2="424.377" gradientUnits="userSpaceOnUse" y2="782.311" xlink:type="simple" xlink:actuate="onLoad" id="m" xlink:show="other"><stop stop-color="#e0925a"/><stop stop-color="#ffe6d9" offset="0.125"/><stop stop-color="#e0925a" offset="0.307"/><stop stop-color="#ffe6d9" offset="0.495"/><stop stop-color="#e0925a" offset="0.693"/><stop stop-color="#ffe6d9" offset="0.885"/><stop stop-color="#e0925a" offset="1"/></linearGradient></defs></svg>