<?xml version="1.0" encoding="UTF-8" standalone="no"?><svg xmlns="http://www.w3.org/2000/svg" xmlns:xlink="http://www.w3.org/1999/xlink" contentScriptType="text/ecmascript" fill="none" width="483" zoomAndPan="magnify" style="fill: none" contentStyleType="text/css" viewBox="0 0 483 446" height="446" preserveAspectRatio="xMidYMid meet" version="1"><g filter="url(#a)"><path fill="url(#b)" d="M314.795 33.0198C321.194 57.8386 325.072 82.0757 328.95 106.313C331.082 119.11 332.634 131.907 335.736 144.511C335.93 145.092 335.93 145.674 336.124 146.256C336.318 147.419 337.287 148.97 335.93 149.552C334.573 150.134 334.379 148.195 333.797 147.225C331.276 142.378 328.562 137.336 326.041 132.295C317.122 115.038 308.397 97.5875 302.192 78.9734C297.538 64.625 294.242 49.8889 294.242 34.571C294.242 34.1832 294.048 33.6015 294.048 32.4382C290.17 39.4184 286.486 45.6231 283.19 51.8278C270.393 75.4833 260.698 100.302 253.524 126.09C250.615 136.755 249.84 147.807 248.289 158.859C248.095 160.216 248.482 162.349 246.35 162.349C244.217 162.349 244.411 160.216 244.023 158.859C244.023 158.471 243.829 158.083 243.829 157.889C244.217 140.827 241.89 123.764 242.278 106.701C242.665 88.6682 247.319 71.7992 256.238 56.0936C257.208 54.3485 257.983 52.7973 259.341 50.4705C252.166 54.7363 246.35 59.7776 240.533 64.625C233.94 70.0541 227.735 75.8711 221.531 81.8819C219.786 83.6269 219.204 84.9842 220.367 87.3109C224.245 94.8729 225.409 103.404 225.796 111.742C226.572 126.284 226.766 141.02 227.348 155.563C227.735 163.706 228.317 171.656 230.256 179.606C230.45 180.769 231.226 181.739 229.674 183.678C222.694 168.942 218.622 153.624 215.52 138.306C212.224 122.6 212.418 106.701 213.581 90.4133C210.672 92.3523 209.121 94.8729 206.989 97.0058C203.304 100.69 199.814 104.568 196.13 108.446C195.355 109.221 194.385 110.191 195.936 111.354C203.498 116.783 206.601 124.733 209.315 133.071C212.611 143.153 214.163 153.624 215.714 164.094C218.816 184.841 221.143 205.782 225.603 226.335C227.154 233.703 228.511 241.265 227.929 249.021C227.929 250.184 227.929 251.736 226.378 251.929C224.633 252.123 224.245 250.572 224.051 249.409C219.786 227.498 211.448 207.139 202.917 186.78C196.324 171.268 191.089 155.175 188.762 138.306C188.18 134.428 188.568 130.55 187.405 126.09C184.303 148.001 174.22 166.809 164.719 185.811C156.187 203.067 149.789 221.1 144.942 239.52C142.033 250.378 139.125 261.43 137.186 272.482C136.992 273.258 136.798 274.034 136.604 274.809C136.41 275.585 136.604 276.748 135.441 276.748C134.277 276.748 134.277 275.391 134.277 274.421C134.471 269.962 134.471 265.696 134.665 261.236C135.44 249.215 136.022 236.999 136.022 224.978C136.022 205.394 137.379 186.004 143.196 167.197C146.493 156.338 150.952 145.674 157.739 136.367C158.126 135.979 158.514 135.591 158.126 134.622C152.503 136.367 147.268 139.081 142.227 141.99C124.001 152.46 106.162 163.125 89.2931 175.728C64.8621 194.148 41.5944 213.732 21.4292 236.999C19.2963 239.52 16.9695 241.847 14.6428 244.367C13.8672 245.143 12.8977 246.306 11.5404 245.531C10.1831 244.561 11.3465 243.398 11.9282 242.428C17.5512 233.121 24.5315 224.978 31.5118 216.64C54.3916 189.107 78.6287 162.737 104.611 138.112C119.735 123.57 136.992 111.548 158.126 106.701C167.821 104.568 177.516 105.731 187.017 108.252C189.538 108.834 191.089 108.64 192.834 106.701C210.285 87.117 228.899 68.503 249.452 52.0217C251.585 50.2766 253.718 48.5316 256.044 47.1743C263.8 42.7147 269.229 35.9283 274.852 28.5602C267.678 29.7236 260.892 30.887 254.105 31.8565C235.879 34.3771 217.653 36.3161 199.426 39.6123C184.496 42.3269 169.76 45.817 155.024 49.8889C154.442 50.0828 153.861 50.2766 153.279 50.4705C152.503 50.6644 151.534 51.0523 151.146 49.8889C150.758 48.9194 151.728 48.5316 152.503 48.1438C157.351 45.817 162.198 43.4903 167.046 41.1635C185.466 32.2443 203.886 23.5189 222.888 15.9569C242.859 8.00714 263.606 4.32308 284.935 6.45595C292.109 7.23153 299.089 9.17052 306.264 10.14C317.122 11.4973 327.205 14.5996 337.481 18.6715C343.492 21.1921 350.472 21.386 357.065 22.7433C379.363 27.009 401.273 32.4381 423.377 38.6428C421.438 37.4795 419.499 36.51 417.561 35.3466C415.622 34.1832 413.683 33.2137 411.55 32.0503C391.191 20.9982 369.862 11.8851 347.951 3.93528C347.37 3.74138 346.788 3.54751 346.206 3.35361C345.237 2.96582 343.88 2.77192 344.267 1.41464C344.655 0.0573664 346.012 0.639039 346.982 0.639039C375.679 4.71087 404.376 8.58883 431.521 19.8348C443.543 24.6823 454.789 30.887 464.29 40.3879C472.627 48.5316 474.178 57.2569 470.107 68.1152C462.932 87.5049 452.656 105.343 441.991 122.794C439.277 127.254 436.756 131.907 434.236 136.367C433.46 137.724 433.072 139.081 433.654 140.827C437.726 151.685 441.022 162.931 443.543 174.177C443.737 175.34 443.737 177.861 446.257 176.116C446.839 175.728 447.421 175.922 447.808 176.504C448.196 177.085 448.002 177.667 447.615 178.055C446.257 179.412 445.288 180.769 445.482 182.708C445.482 183.29 444.9 184.066 444.318 183.678C441.604 182.127 440.44 184.647 438.889 185.811C435.593 188.331 432.684 190.852 429.582 193.566C429 193.954 428.419 194.536 428.613 195.312C428.807 196.087 429.776 196.087 430.358 196.087C433.46 196.281 436.562 196.669 439.665 196.863C440.44 196.863 441.216 196.863 441.216 197.832C441.216 198.802 440.44 198.996 439.665 198.996C436.562 198.996 433.266 198.996 429.776 198.996C439.665 211.017 441.022 225.559 441.991 240.102C443.93 266.472 442.379 292.842 442.767 319.212C442.767 320.957 442.961 322.508 442.961 324.253C442.961 325.416 442.961 326.58 441.604 326.774C440.053 326.968 440.246 325.416 440.246 324.447C439.277 316.691 438.501 308.935 437.338 301.179C434.042 277.524 429 254.256 423.571 230.989C422.408 225.947 421.244 220.906 418.724 215.865C417.948 219.936 417.173 224.202 416.397 228.274C412.131 248.827 409.998 269.574 408.06 290.321C405.927 311.262 405.733 332.591 408.641 353.531C408.835 354.695 409.611 356.246 408.06 356.634C406.314 357.022 406.314 355.083 406.121 353.919C401.855 333.56 397.395 313.201 395.65 292.454C393.905 271.125 393.129 249.797 399.722 228.856C401.273 223.62 403.6 218.773 406.121 212.762C395.844 221.1 385.955 228.274 376.067 235.448C367.923 241.459 359.585 247.082 351.054 252.317C348.145 254.062 347.564 255.226 349.503 258.522C355.707 269.186 359.198 281.014 362.882 292.648C375.097 330.845 385.567 369.431 400.304 406.659C402.243 411.507 404.569 416.16 407.284 420.814C407.866 421.783 409.029 422.947 407.672 423.916C406.315 424.885 405.539 423.334 404.763 422.559C383.047 400.067 364.239 375.636 351.248 346.939C349.115 342.091 347.37 337.05 344.849 332.203C345.819 340.153 346.788 348.102 347.951 356.052C351.054 376.993 356.677 397.352 365.208 416.936C365.402 417.517 365.79 418.293 365.984 418.875C366.178 419.65 366.178 420.426 365.596 420.814C364.627 421.395 364.045 420.814 363.463 420.232C363.075 419.844 362.882 419.456 362.688 419.069C343.104 388.627 329.337 355.858 325.072 319.599C323.908 309.905 323.521 300.016 324.296 289.933C322.939 293.229 321.582 296.526 320.418 300.016C313.632 319.599 306.07 338.795 301.416 358.961C297.538 375.83 295.793 392.892 298.896 410.149C299.089 411.313 299.865 412.864 298.508 413.252C296.763 413.639 296.763 411.7 296.569 410.343C292.109 392.892 289.782 375.248 290.17 357.409C290.558 337.05 293.079 316.885 300.641 297.689C305.682 284.892 313.826 273.84 324.49 265.308C331.082 260.073 339.032 256.389 346.206 251.736C369.474 236.612 391.384 219.743 412.907 202.292C414.652 200.935 416.785 200.159 418.336 197.444C414.846 197.251 411.937 196.087 409.029 198.802C391.966 213.926 372.77 226.141 352.799 236.805C334.573 246.5 316.54 256.583 300.835 270.544C300.253 270.931 299.865 271.513 299.09 271.319C298.508 270.156 299.477 269.768 300.059 269.186C314.214 255.613 327.011 240.683 341.553 227.498C357.065 213.538 374.515 202.874 394.681 197.251C395.262 197.057 395.65 196.863 396.232 196.087C389.058 196.087 381.69 196.087 374.515 196.087C372.964 196.087 371.801 196.669 370.444 197.444C350.86 209.854 329.143 217.028 306.651 222.651C289.201 226.917 271.362 230.407 254.687 237.581C251.197 239.132 247.901 240.683 244.411 241.847C271.944 223.427 301.416 209.078 332.634 198.22C327.592 198.802 322.745 199.189 317.704 199.771C315.377 200.159 313.05 199.771 310.723 199.189C294.436 195.699 278.73 190.076 263.025 184.453C256.82 182.127 250.421 180.381 244.023 178.636C243.053 178.443 241.114 178.636 241.502 176.891C241.696 175.34 243.441 175.728 244.604 175.922C252.942 177.279 261.28 178.83 269.423 180.381C286.292 183.872 302.58 188.719 318.479 195.118C321 196.087 323.133 196.087 325.653 195.699C336.705 194.148 347.758 193.373 359.004 193.373C359.779 193.373 360.555 193.179 361.524 192.597C321.775 184.453 286.874 165.839 252.748 144.898C253.524 143.735 254.493 144.317 255.463 144.511C277.567 150.909 300.447 154.593 322.551 161.186C341.553 166.809 358.81 176.116 372.77 190.464C373.74 191.434 374.709 192.597 376.454 192.597C390.803 192.597 405.151 193.76 420.275 194.148C388.282 177.667 362.882 153.43 334.573 133.071C334.767 132.683 334.96 132.295 335.348 131.907C339.614 133.846 343.88 135.785 348.145 137.53C367.535 145.674 386.343 155.369 403.018 168.36C410.774 174.371 418.142 180.769 423.959 188.719C425.316 190.658 426.48 191.046 428.419 189.301C431.909 186.198 435.399 183.29 439.083 180.381C440.828 179.024 441.41 177.667 440.246 175.534C436.369 168.166 432.103 160.992 427.837 153.818C427.449 153.042 427.061 151.879 425.898 152.073C425.122 152.266 424.929 153.236 424.541 154.012C421.826 159.635 420.275 165.645 417.948 171.268C417.561 172.238 417.367 173.983 415.815 173.595C414.458 173.207 414.846 171.462 415.234 170.493C417.173 163.125 418.918 155.757 421.051 148.388C421.826 145.868 421.632 143.929 419.887 141.796C416.979 138.112 414.264 134.234 411.55 130.356C409.999 128.223 408.835 127.642 407.09 130.162C403.6 135.397 399.916 140.439 396.232 145.674C395.456 146.643 394.875 148.582 393.323 147.613C392.16 146.837 393.323 145.48 393.711 144.317C396.426 137.336 398.946 130.356 401.855 123.376C403.018 120.661 402.63 118.722 400.885 116.589C382.465 93.3218 362.106 71.9931 339.226 52.7973C332.246 47.3682 323.714 40.5818 314.795 33.0198ZM353.768 27.009C354.544 28.7541 355.707 29.3358 356.483 29.9175C364.045 35.5405 371.025 41.7452 377.618 48.3377C391.191 61.9105 402.243 77.2283 411.937 93.7095C412.519 94.679 412.713 96.2302 414.07 96.2302C415.234 96.0363 415.234 94.4851 415.622 93.7095C422.214 79.9429 429.582 66.7579 439.665 55.1241C442.573 51.8278 442.573 51.6339 438.307 50.2767C415.622 43.1025 392.936 35.9283 369.862 30.4992C365.014 29.3358 359.585 28.1724 353.768 27.009ZM440.44 90.6072C434.817 97.5875 429.388 104.374 423.765 111.354C423.184 111.936 422.796 112.711 423.184 113.681C424.541 117.559 426.286 121.243 428.807 125.315C432.491 113.293 436.175 102.047 440.44 90.6072Z"/></g><defs><linearGradient x1="447.319" y1="14.715" x2="152.805" gradientUnits="userSpaceOnUse" y2="448.227" xlink:type="simple" xlink:actuate="onLoad" id="b" xlink:show="other"><stop stop-color="#e0925a"/><stop stop-color="#ffe6d9" offset="0.512"/><stop stop-color="#e0925a" offset="1"/></linearGradient><filter x="0.908" color-interpolation-filters="sRGB" y="-1.485" width="481.357" xlink:type="simple" filterUnits="userSpaceOnUse" xlink:actuate="onLoad" id="a" height="446.71" xlink:show="other"><feFlood result="BackgroundImageFix" flood-opacity="0"/><feColorMatrix values="0 0 0 0 0 0 0 0 0 0 0 0 0 0 0 0 0 0 127 0" result="hardAlpha" in="SourceAlpha"/><feOffset dy="11"/><feGaussianBlur stdDeviation="5"/><feComposite in2="hardAlpha" operator="out"/><feColorMatrix values="0 0 0 0 0 0 0 0 0 0 0 0 0 0 0 0 0 0 0.25 0"/><feBlend result="effect1_dropShadow_13_2703" in2="BackgroundImageFix"/><feBlend result="shape" in2="effect1_dropShadow_13_2703" in="SourceGraphic"/><feColorMatrix values="0 0 0 0 0 0 0 0 0 0 0 0 0 0 0 0 0 0 127 0" result="hardAlpha" in="SourceAlpha"/><feOffset dx="1" dy="3"/><feGaussianBlur stdDeviation="0.5"/><feComposite k2="-1" k3="1" operator="arithmetic" in2="hardAlpha"/><feColorMatrix values="0 0 0 0 1 0 0 0 0 1 0 0 0 0 1 0 0 0 0.43 0"/><feBlend result="effect2_innerShadow_13_2703" in2="shape"/><feColorMatrix values="0 0 0 0 0 0 0 0 0 0 0 0 0 0 0 0 0 0 127 0" result="hardAlpha" in="SourceAlpha"/><feOffset dy="-2"/><feGaussianBlur stdDeviation="1.5"/><feComposite k2="-1" k3="1" operator="arithmetic" in2="hardAlpha"/><feColorMatrix values="0 0 0 0 0.670833 0 0 0 0 0.351615 0 0 0 0 0.122986 0 0 0 0.54 0"/><feBlend result="effect3_innerShadow_13_2703" in2="effect2_innerShadow_13_2703"/></filter></defs></svg>