<?xml version="1.0" encoding="UTF-8" standalone="no"?><svg xmlns="http://www.w3.org/2000/svg" xmlns:xlink="http://www.w3.org/1999/xlink" contentScriptType="text/ecmascript" fill="#000000" width="401.7" zoomAndPan="magnify" contentStyleType="text/css" viewBox="-2.1 -0.7 401.7 416.3" height="416.3" preserveAspectRatio="xMidYMid meet" version="1"><g><g fill="#e0925a" id="change1_1"><path fill="inherit" d="M208.69,0.23c-8.84,8.43-16.01,21.11-19.38,32.82c-2.86,9.95-2.11,20.48,0.05,30.49 c5.07,23.52,18.57,43.35,35.19,60.3c16.8,17.14,35.86,32.01,53.64,48.1c19.15,17.32,40.07,33.52,49.13,58.55 c9.06,25.04,10.67,55.99-1.15,80.49c-0.2,0.42-2.28,4.01-2,4.81c0.34,0.96,0.53,0.05,1.32-0.55c3.36-2.53,6.27-9.44,8.05-13.13 c9.83-20.37,14.07-42.04,11.33-64.61c-1.39-11.42-4.33-22.74-8.98-33.28c-4.92-11.14-12.44-20.19-21.17-28.56 c-17.74-17.01-36.33-33.13-54.91-49.2c-16.27-14.08-32.56-28.78-44.32-46.99c-6.84-10.59-11.89-22.24-14.67-34.55 c-1.34-5.95-2.16-12.03-1.98-18.14c0.09-2.96,0.38-5.94,1-8.84c0.22-1.03,0.59-2.06,0.78-3.1c1.56-4.2,0.16-2.03-4.2,6.5 c0.6-0.73,1.25-1.41,1.96-2.03c3.25-3.1,5.49-7.68,7.6-11.59c0.95-1.75,2.7-4.12,2.91-6.08C208.89,1.47,209.67-0.7,208.69,0.23 L208.69,0.23z"/><path fill="inherit" d="M116.5,329.69c-9.58,16.37-24.67,39.97-12.77,58.95c11.4,18.2,41.52,9.58,57.36,2.93 c18.98-7.97,36.68-21.23,47.74-38.76c6.88-10.9,12.61-21.79,11.59-34.99c-0.89-11.47-3.2-22.98-5.33-34.27 c-5.19-27.51-12.33-54.62-21.22-81.16c-3.75,6.5-7.5,12.99-11.25,19.49c20.29,28.02,19.28,64.08,26.18,96.58 c6.76,31.81,24.28,59.42,51.44,77.69c14.9,10.03,31.85,16.65,49.64,19.17c1.9,0.27,5.81-7.82,6.6-9.18 c0.4-0.7,5.3-10.17,4.65-10.31c-15.61-3.15-33.61-7.19-41.66-22.6c-1.95-3.73-3.13-7.9-2.88-12.13c0.06-0.98,0.19-1.95,0.38-2.91 c1.35-4.74-0.17-2.32-4.56,7.26c1.13-0.82,2.07-2.04,3.17-2.94c6.11-4.99,13.51-7.99,20.91-10.49 c30.81-10.42,64.72-13.27,92.11-32.19c2.97-2.05,5.2-7.29,6.87-10.29c1.04-1.88,2.11-3.78,2.96-5.75c0.13-0.3,1.14-3.31,0.96-3.25 c-51.26,16.57-105.67,7.01-157.3-2.52c-3.75,6.5-7.5,12.99-11.25,19.49c15.8-1.34,31.62-2.54,47.41-4.02 c5.86-0.55,10.64-1.67,14.52-6.35c5.01-6.04,9.53-13.83,12.08-21.29c4.05-11.79-2.86-21.63-11-29.57 c-10.19-9.93-20.52-19.66-30.38-29.92c-20.01-20.84-38.81-42.84-56.26-65.87c-8.67-11.43-17.21-23.06-24.97-35.13 c-7.35-11.43-13.64-23.78-15.37-37.42c-1.7-13.43,0.49-28.65,6.69-40.75c5.25-10.26,15.08-18.97,23.96-26.05 c3.36-2.68,5.6-7.88,7.6-11.59c0.95-1.75,2.7-4.12,2.91-6.08c0.03-0.26,0.84-2.24-0.18-1.42c-21.25,16.96-37.83,41.41-47.25,66.83 c-4.14,11.17-6.37,23.14-5.35,35.06c1.13,13.16,6.17,25.18,12.93,36.41c14.77,24.51,33.05,47.4,51.45,69.25 c18.61,22.11,38.53,43.07,59.55,62.91c5.25,4.96,10.88,10.06,13.83,16.81c1.4,3.19,2.03,6.59,1.64,10.07 c-0.87,7.86-3.13-4.24,5.91-8.69c-1.62,0.8-2.84,1.85-4.65,2.37c-8.14,2.33-17.75,1.89-26.16,2.6 c-9.22,0.78-18.44,1.56-27.66,2.34c-2.35,0.2-5.57,7.39-6.6,9.18c-0.4,0.7-5.27,10.19-4.65,10.31 c51.63,9.53,106.05,19.09,157.3,2.52c3.6-6.43,7.19-12.86,10.79-19.29c-25.47,17.59-56.79,21.1-85.71,30.02 c-12.41,3.83-25.21,8.47-33.48,19.03c-8.79,11.21-18.81,27.16-12.17,41.59c7.52,16.38,26.3,20.69,42.32,23.92 c3.75-6.5,7.5-12.99,11.25-19.49c-31.29-4.43-60.02-21.81-79.07-46.96c-9.73-12.85-16.47-27.42-20.42-43.02 c-4.2-16.6-5.79-33.7-8.59-50.56c-3.11-18.72-7.9-37.3-19.19-52.89c-0.36-0.5-6.19,8.47-6.6,9.18c-1.22,2.11-5.53,7.66-4.65,10.31 c6.46,19.3,12.02,38.9,16.54,58.75c2.26,9.92,4.28,19.9,6.04,29.92c1.79,10.19,4.32,20.97,4.02,31.35 c-0.02,0.73-1.23,7.11-0.99,7.32c-0.51-0.46,6.22-8.09,2.48-4.28c-0.61,0.62-1.15,1.31-1.74,1.94c-3.18,3.4-6.74,6.48-10.38,9.39 c-6.85,5.48-14.31,10.21-22.23,14c-8.2,3.92-16.96,6.73-25.94,8.22c-8.3,1.37-17.89,2.32-25.83-1.06 c-8.06-3.42-12.58-11.49-13.54-19.92c-1.11-9.77,2.59-18.47,7.4-26.69c0.51-0.88,5.77-9.66,4.65-10.31 C122.01,319.89,116.67,329.4,116.5,329.69L116.5,329.69z"/><path fill="inherit" d="M70.04,234.56c-5,6.1-10.86,11.35-17.5,15.61c-7.08,4.54-14.87,7.19-22.55,10.49 c-6.98,3-12.67,6.98-17.18,13.15c-5.07,6.95-11.07,15.9-12.57,24.57c-2.34,13.55,12.89,22.27,24.64,18.23 c6.53-2.24,11.38-7.08,15.36-12.56c5.45-7.51,10.46-16.09,13.48-24.9c6.4-18.65,0.4-38.41,3.55-57.49 c-3.79,6.16-7.58,12.33-11.37,18.49c-1,20-0.49,40.04,1.66,59.95c1.44,13.28,3.26,32.46,18.4,37.29 c14.63,4.67,27.57-7.59,34.82-18.75c5.44-8.37,10.39-17.45,13.07-27.12c2.25-8.13,2.68-16.61,2.37-25 c-0.79-21.09-4.45-42.25-6.96-63.19c-3.75,6.5-7.5,12.99-11.25,19.49c4.69,8.92,3.82,18.95,4.4,28.7 c0.55,9.27,1.97,18.5,4.24,27.5c2.45,9.7,5.89,19.15,10.26,28.14c3.98,8.18,8.6,16.54,15.45,22.68 c6.49,5.82,15.49,9.61,24.28,7.67c7.35-1.63,12.32-7.05,16.36-13.05c5.39-7.99,10.81-17.03,12.79-26.6 c1.68-8.13,0.23-16.38-2.72-24.04c-7.87-20.41-26.33-37.7-24.68-61.02c0.1-1.39-4.77,5.54-5.13,6.11 c-2.03,3.3-5.95,8.31-6.24,12.38c-1.21,17.18,8.32,31.65,16.64,45.84c4.34,7.4,8.47,15.08,10.45,23.49 c0.86,3.64,1.24,7.31,0.97,11.05c-0.11,1.57-0.33,3.13-0.65,4.68c-0.2,0.94-0.5,1.84-0.71,2.77c-0.15,0.42-0.3,0.84-0.45,1.26 c1.74-2.96,3.49-5.92,5.23-8.88c-2.9,2.3-4.8,4.63-8.49,5.92c-3.59,1.25-7.5,1.38-11.22,0.71c-7.95-1.44-14.62-6.41-19.68-12.52 c-10.63-12.84-17.16-30.08-21.19-46.07c-2.48-9.83-3.91-19.89-4.29-30.03c-0.34-8.95-0.06-18.02-4.35-26.16 c-0.16-0.3-6.16,8.42-6.6,9.18c-1.51,2.62-5.04,7.09-4.65,10.31c2.02,16.86,4.29,33.71,5.99,50.6c0.72,7.13,1.19,14.32,0.82,21.49 c-0.18,3.5-0.56,7-1.23,10.44c-0.32,1.64-0.7,3.27-1.17,4.87c-0.24,0.82-0.6,1.65-0.81,2.48c-1.07,4.3,2.46-4.45,3.13-4.77 c-1.19,0.58-2.58,2.77-3.61,3.65c-1.07,0.91-2.19,1.76-3.36,2.53c-2.73,1.8-5.71,3.21-8.89,4c-5.63,1.4-11.64,0.72-16.51-2.55 c-11.48-7.72-12.48-24.42-13.73-36.82c-1.9-18.96-2.31-38.03-1.36-57.06c0.07-1.41-4.77,5.54-5.13,6.11 c-2.21,3.58-5.53,8.1-6.24,12.38c-2.7,16.37,1.46,32.99-1.43,49.32c-0.41,2.32-1.26,4.51-1.76,6.79c-1.37,3.6,0,1.34,4.1-6.79 c-0.61,0.77-1.28,1.5-1.99,2.18c-2.48,2.38-5.44,4.34-8.69,5.47c-5.87,2.05-12.35,1.16-17.5-2.33c-2.5-1.7-4.66-3.99-5.96-6.74 c-1.46-3.08-0.71-5.74-0.94-8.89c-6.2,8.82-7.46,11.33-3.79,7.54c0.76-0.68,1.55-1.32,2.37-1.91c1.34-0.97,2.76-1.82,4.22-2.61 c3.92-2.12,8.14-3.62,12.27-5.26c13.65-5.42,25.18-13.58,34.51-24.97c3.23-3.94,5.78-8.59,8.05-13.13 C69.84,237.85,72.72,231.28,70.04,234.56L70.04,234.56z"/><path fill="inherit" d="M168.67,233.31c0.65-3.12,2.79-5.99-1.76,2.02c0.39-0.68,5.72-9.74,4.65-10.31 c-5.77-3.02-10.25-7.39-13.4-13.08c-0.19-0.34-6.17,8.43-6.6,9.18c-1.32,2.29-2.62,4.63-3.69,7.05c-0.32,0.73-1.39,2.47-0.96,3.25 c3.16,5.69,7.64,10.07,13.4,13.08c1.55-3.44,3.1-6.87,4.65-10.31c-3.17,5.58-6.33,11.26-7.65,17.6c-0.29,1.4,1.46-0.69,1.32-0.55 c1.47-1.39,2.78-3.9,3.81-5.56C164.7,241.99,167.76,237.65,168.67,233.31L168.67,233.31z"/></g></g><g><g><g id="change1_2"><path fill="#e0925a" d="M116.34,169.76c1.42,1.76,2.79,3.54,4.06,5.41c0.63,0.93,1.25,1.88,1.84,2.84 c0.91,1.21,1.31,2.6,1.2,4.15c2.59-4.05,2.81-5.08,0.66-3.08c-1.07,0.77-2.24,1.32-3.53,1.65c-1.59,0.38-3.32,0.34-4.88-0.11 c-4.35-1.25-5.49-4.78-5.88-8.9c-0.45-4.79-0.7-9.6-1.05-14.4c-0.07-1.01-3.18,3.69-3.42,4.08c-1.17,1.89-4.32,5.83-4.16,8.25 c0.28,4.17,0.76,8.38,0.75,12.56c-0.01,2.47-0.53,4.61-0.88,7.03c4.1-5.63,4.7-7.36,1.82-5.18c-0.98,0.55-2.02,0.86-3.11,0.92 c-10.37,1.13-9.14-12.14-5.89-18.01c0.52-0.94,2.74-4.59,1.82-5c-0.72-0.31-4.84,7.31-5.07,7.73 c-3.21,5.81-7.58,13.37-6.91,20.29c0.61,6.34,6.49,10.05,12.27,6.79c5.53-3.11,9.39-11.47,11.66-17.05 c2.91-7.17,1.63-14.9,1.12-22.41c-2.53,4.11-5.05,8.22-7.58,12.33c0.31,4.2,0.6,8.4,0.92,12.6c0.22,2.94,0.14,6.44,2.09,8.85 c3.66,4.52,10.34,3.1,14.2-0.23c4.92-4.24,8.39-11.06,11.07-16.84c1.13-2.44,2.15-4.79,1.12-7.45c-1.37-3.55-4.4-6.89-6.76-9.81 C124.27,157.3,114.6,167.61,116.34,169.76L116.34,169.76z"/></g></g></g></svg>