<?xml version="1.0" encoding="UTF-8" standalone="no"?><svg xmlns="http://www.w3.org/2000/svg" xmlns:xlink="http://www.w3.org/1999/xlink" contentScriptType="text/ecmascript" fill="#000000" width="1220.2" zoomAndPan="magnify" contentStyleType="text/css" viewBox="0.0 0.0 1220.2 318.0" height="318" preserveAspectRatio="xMidYMid meet" version="1"><g id="change1_1"><path fill="#fac057" d="M1111.7,0H108.4L0,108.4v101.2L108.4,318h1003.4l108.4-108.4V108.4L1111.7,0z M1204.8,206.5h-10.5V162h12.8 v42.2L1204.8,206.5z M1171.1,240.2l-8,8h-9v-17h17V240.2z M1142.2,269.1h-9v-17h17v9L1142.2,269.1z M1154.2,252.1h5l-5,5V252.1z M1150.2,248.1h-17v-17h17V248.1z M1133,273.1h5.2l-5.2,5.2V273.1z M1175.1,231.2h5l-5,5V231.2z M1175.1,227.2h-21h-4H1133v-16.7 h57.3h10.5l-16.7,16.7H1175.1z M1207.1,113.7V158h-12.8v-44.5h12.5L1207.1,113.7z M1190.3,206.5H1129v20.7h-20.7v61.4H113.1v-61.4 H92.4v-20.7H31.1v-93.7h61.3V92.1h20.7V31.5h995.3v60.6h20.7v20.7h61.3V206.5z M595.1,292.5V305H187v-12.4H595.1z M67.4,248.1H56.9 l-6.5-6.5v-10.5h17V248.1z M67.4,252.1v6.5l-6.5-6.5H67.4z M46.5,237.7l-6.5-6.5h6.5V237.7z M81.9,273.1h6.5v6.5L81.9,273.1z M88.4,269.1H77.9l-6.5-6.5v-10.5h17V269.1z M71.4,248.1v-17h17v17H71.4z M71.4,227.2h-25H35.9l-16.7-16.7h11.8h57.3v16.7H71.4z M13,204.2V162h14.1v44.5H15.3L13,204.2z M27.1,158H13v-44.3l0.2-0.2h13.9V158z M187,27.5V13h408.2v14.5H187z M1133,108.8V92.1h52.4 l16.7,16.7H1133z M1150.2,56.8v10.1h-17V50h10.1L1150.2,56.8z M1154.2,60.8l6.1,6.1h-6.1V60.8z M1154.2,70.9h10.1l6.8,6.8v10.1h-17 V70.9z M1175.1,81.8l6.3,6.3h-6.3V81.8z M1139.3,46h-6.3v-6.3L1139.3,46z M1133,70.9h17.2v17.2H1133V70.9z M1129,35.7v52.4h-16.7V19 L1129,35.7z M1108.3,27.5h-482V13h480.1l1.9,1.9V27.5z M113.7,13H183v14.5h-69.8V13.6L113.7,13z M109.1,88.1H92.4V34.3l16.7-16.7 V88.1z M50.3,76.5l5.5-5.5h11.5v17h-17V76.5z M76.8,50h11.5v17h-17V55.5L76.8,50z M67.3,66.9h-7.5l7.5-7.5V66.9z M71.3,70.9h17.2 v17.2H71.3V70.9z M88.4,46h-7.6l7.6-7.6V46z M46.3,88.1h-7.6l7.6-7.6V88.1z M88.4,92.1v16.7H18l16.7-16.7H88.4z M92.4,283.6v-10.5 v-25v-17h16.7v69.1L92.4,283.6z M113.1,292.5H183V305h-69.2l-0.6-0.6V292.5z M1106.3,305H626.3v-12.4h482V303L1106.3,305z M1112.4,231.2h16.7v51.1l-16.7,16.7V231.2z"/></g></svg>