<?xml version="1.0" encoding="UTF-8" standalone="no"?><svg xmlns="http://www.w3.org/2000/svg" xmlns:xlink="http://www.w3.org/1999/xlink" contentScriptType="text/ecmascript" fill="none" width="695" zoomAndPan="magnify" style="fill: none" contentStyleType="text/css" viewBox="0 0 695 256" height="256" preserveAspectRatio="xMidYMid meet" version="1"><g filter="url(#a)"><path fill="url(#b)" d="M16.0039 185.942C18.0048 187.192 96.5397 231.212 164.07 205.951C197.084 193.695 203.837 171.685 232.35 179.189C260.863 186.692 310.385 225.709 333.645 190.194C333.645 190.194 357.156 233.463 413.431 235.714C455.449 237.465 472.457 215.955 478.46 204.7L479.71 201.449L480.46 199.448L481.211 197.447C481.711 195.946 482.211 194.696 482.461 193.195L483.212 188.943C483.462 187.442 483.462 185.942 483.712 184.691C483.712 183.19 483.962 181.69 483.712 180.439C483.712 178.939 483.712 177.438 483.462 176.187L482.711 171.935C481.461 166.183 479.21 160.68 476.209 155.928C472.957 150.926 468.955 146.674 464.453 143.173C463.203 142.422 462.202 141.422 460.702 140.672L456.95 138.671C454.199 137.42 451.448 136.17 448.696 135.669C442.944 134.169 436.941 133.418 431.439 134.419C429.938 134.669 428.687 135.169 427.187 135.419C425.936 135.919 424.435 136.42 423.185 136.92C420.684 138.421 418.183 139.921 416.182 141.922C411.93 145.924 408.428 151.426 406.177 157.429C406.427 154.177 407.178 150.926 408.428 147.925C409.679 144.923 411.18 141.922 413.18 139.421C417.182 133.919 423.435 129.917 430.188 128.416C436.941 126.665 443.944 127.416 450.447 128.666C453.699 129.166 456.95 130.417 460.201 131.668L464.703 133.919C466.204 134.669 467.455 135.669 468.955 136.67C474.458 140.672 479.46 145.424 483.212 151.176C486.963 156.929 489.464 163.181 490.965 169.934C492.466 176.687 492.466 183.441 491.465 190.194C490.715 195.696 488.964 201.198 486.713 206.201C493.716 213.954 508.973 224.959 538.236 223.458C583.006 221.457 596.512 187.943 596.512 187.943C596.512 187.943 679.549 188.443 678.799 122.413C678.298 60.1357 615.02 57.1344 599.013 70.1402C597.513 71.891 596.012 73.3916 594.761 75.3925C592.26 78.6439 590.259 81.8955 588.509 85.6471C585.007 92.6502 583.756 100.404 585.757 107.657C587.008 111.158 588.759 114.66 591.26 117.661C593.511 120.663 596.762 122.664 600.264 123.914C607.267 126.415 616.021 125.165 624.274 122.664C621.023 125.665 617.021 127.666 612.769 128.916C608.517 130.167 603.515 130.667 598.763 129.417C595.762 128.666 593.01 127.416 590.509 125.665C589.759 125.915 589.009 126.165 588.258 126.415C587.008 126.915 586.007 127.666 585.007 128.416C583.006 129.917 581.755 132.168 581.255 134.919C580.505 137.67 581.255 140.421 581.755 143.423C582.256 144.923 582.756 146.174 583.256 147.675L585.257 151.927H585.007L582.256 148.175C581.505 146.924 580.755 145.424 579.755 144.173C578.504 141.172 577.253 138.17 577.253 134.669C577.253 131.167 578.254 127.416 580.505 124.664C581.505 123.164 583.006 121.913 584.257 120.913L584.507 120.663C581.755 117.661 579.755 114.16 578.254 110.158C576.753 105.656 576.003 100.654 576.503 95.9016C577.003 91.1495 578.504 86.6475 580.505 82.3956C582.506 78.1437 585.007 74.3921 587.758 70.8905C588.759 69.3898 590.009 68.1393 591.26 66.8888C585.257 60.636 574.002 52.3822 556.744 55.3836C556.994 56.384 556.994 57.3845 557.245 58.3849C557.745 62.8869 557.995 67.3889 557.495 72.1411C556.994 76.6431 555.494 81.3952 553.243 85.6471C550.992 89.899 547.99 93.6506 544.489 96.6519C537.486 102.905 528.982 106.656 520.228 108.657C511.474 110.908 502.72 111.659 493.966 111.409C491.715 111.409 489.464 111.158 487.464 110.908C485.213 110.658 482.961 110.408 480.71 109.908C476.208 108.907 471.707 106.907 467.955 103.905C464.203 100.904 461.202 96.652 459.701 91.8999C458.451 87.1478 458.201 82.3957 459.201 77.6435C460.201 73.1415 462.202 68.6395 465.454 65.138C466.954 63.3872 468.955 61.8866 470.956 60.636C471.957 60.1358 473.207 59.6355 474.458 59.1352C475.458 58.8851 476.709 58.6351 477.709 58.3849C482.211 57.6346 486.963 58.385 490.965 60.1358C494.967 62.1366 498.468 64.8878 500.719 68.3894C494.467 62.6368 485.713 60.1357 478.46 62.3867C477.459 62.6368 476.709 62.8869 475.708 63.3872C474.958 63.8874 474.208 64.1375 473.457 64.6377C471.957 65.6382 470.706 66.8887 469.455 68.3894C467.204 71.3907 465.704 74.8922 465.204 78.6439C464.453 82.3956 464.703 86.1473 465.954 89.6488C467.205 93.1504 469.205 95.9017 472.207 98.1527C475.208 100.404 478.71 101.654 482.461 102.404C486.213 103.155 490.215 103.405 494.467 103.405C502.72 103.405 510.724 102.404 518.477 100.404C526.231 98.4027 533.484 94.9011 539.237 89.8989C544.989 84.8967 548.491 78.1437 549.491 70.3903C550.492 63.6373 549.491 56.6341 547.49 49.8811C543.488 40.3769 531.983 23.8697 500.469 18.1171C454.949 9.86344 444.695 40.3769 444.695 40.3769C444.695 40.3769 444.945 16.3663 418.433 12.6146C387.669 8.36274 383.167 32.8736 383.167 32.8736C383.167 32.8736 308.634 13.615 286.124 71.1406C266.115 122.163 303.882 135.669 312.636 138.17C318.889 138.921 324.891 139.171 330.894 138.671C337.897 138.17 344.9 136.67 350.903 133.668C357.156 130.917 362.408 126.415 366.66 121.163C368.661 118.412 370.411 115.41 371.912 112.409C373.413 109.157 374.663 106.156 375.164 102.905C375.664 99.6533 375.414 96.4018 374.413 93.6506C373.413 90.8993 371.412 88.3983 368.661 86.3974C366.16 84.3965 362.908 82.6458 359.907 81.3952C356.905 80.1447 353.404 79.6445 349.902 79.3943C346.401 79.1442 342.899 79.3943 339.398 80.3947C337.647 80.8949 336.146 81.6453 334.896 82.8958C333.645 84.1464 332.645 85.6471 332.395 87.648C332.144 85.8972 332.645 83.8963 333.895 82.1455C334.896 80.3947 336.647 79.1442 338.397 78.1438C341.899 76.393 345.901 75.3925 349.652 75.1424C353.654 74.8923 357.406 75.1423 361.658 76.1428C365.409 77.3933 368.911 79.1442 372.412 81.3952C375.664 83.6462 378.665 87.1477 380.416 91.1495C382.167 95.1512 382.417 99.6533 381.917 103.905C381.416 108.157 380.166 111.909 378.665 115.66C377.164 119.162 375.164 122.914 372.913 126.165C368.411 132.668 361.658 137.92 354.404 141.422C347.151 144.923 339.398 146.674 331.394 147.174C323.641 147.925 315.887 147.424 308.384 146.174C305.383 145.674 302.381 145.174 299.63 144.423C294.378 144.673 287.625 144.423 278.371 143.923C233.1 141.422 216.093 122.163 179.326 164.182C141.56 206.951 48.2682 195.446 16.0039 185.942Z"/></g><defs><linearGradient x1="642.965" y1="19.616" x2="564.352" gradientUnits="userSpaceOnUse" y2="334.493" xlink:type="simple" xlink:actuate="onLoad" id="b" xlink:show="other"><stop stop-color="#e0925a"/><stop stop-color="#ffe6d9" offset="0.512"/><stop stop-color="#e0925a" offset="1"/></linearGradient><filter x="0.004" color-interpolation-filters="sRGB" y="0.119" width="694.8" xlink:type="simple" filterUnits="userSpaceOnUse" xlink:actuate="onLoad" id="a" height="255.695" xlink:show="other"><feFlood result="BackgroundImageFix" flood-opacity="0"/><feColorMatrix values="0 0 0 0 0 0 0 0 0 0 0 0 0 0 0 0 0 0 127 0" result="hardAlpha" in="SourceAlpha"/><feOffset dy="4"/><feGaussianBlur stdDeviation="8"/><feComposite in2="hardAlpha" operator="out"/><feColorMatrix values="0 0 0 0 0 0 0 0 0 0 0 0 0 0 0 0 0 0 0.25 0"/><feBlend result="effect1_dropShadow_13_2700" in2="BackgroundImageFix"/><feBlend result="shape" in2="effect1_dropShadow_13_2700" in="SourceGraphic"/><feColorMatrix values="0 0 0 0 0 0 0 0 0 0 0 0 0 0 0 0 0 0 127 0" result="hardAlpha" in="SourceAlpha"/><feOffset dx="1" dy="3"/><feGaussianBlur stdDeviation="0.5"/><feComposite k2="-1" k3="1" operator="arithmetic" in2="hardAlpha"/><feColorMatrix values="0 0 0 0 1 0 0 0 0 1 0 0 0 0 1 0 0 0 0.43 0"/><feBlend result="effect2_innerShadow_13_2700" in2="shape"/><feColorMatrix values="0 0 0 0 0 0 0 0 0 0 0 0 0 0 0 0 0 0 127 0" result="hardAlpha" in="SourceAlpha"/><feOffset dy="-2"/><feGaussianBlur stdDeviation="1.5"/><feComposite k2="-1" k3="1" operator="arithmetic" in2="hardAlpha"/><feColorMatrix values="0 0 0 0 0.670833 0 0 0 0 0.351615 0 0 0 0 0.122986 0 0 0 0.54 0"/><feBlend result="effect3_innerShadow_13_2700" in2="effect2_innerShadow_13_2700"/></filter></defs></svg>