<?xml version="1.0" encoding="UTF-8" standalone="no"?><svg xmlns="http://www.w3.org/2000/svg" xmlns:xlink="http://www.w3.org/1999/xlink" contentScriptType="text/ecmascript" fill="none" width="991" zoomAndPan="magnify" style="fill: none" contentStyleType="text/css" viewBox="0 0 991 620" height="620" preserveAspectRatio="xMidYMid meet" version="1"><g filter="url(#a)"><g filter="url(#b)"><path fill="url(#c)" clip-rule="evenodd" d="M80.0996 20H908.1L908.1 20.1001C908.9 20.1001 909.6 20.8003 909.6 21.6001V51.2002H952.005C952.803 51.2031 953.5 51.9019 953.5 52.7002V521.135C954.02 521.375 954.4 521.911 954.4 522.5C954.4 523.3 953.7 524 952.9 524H912.4V566.274L912.4 566.3L912.4 566.326V566.4C912.4 567.2 911.7 567.9 910.9 567.9H80.2002L80.1499 567.899L80.0996 567.9C79.2996 567.9 78.5996 567.2 78.5996 566.4V524H38.0996C37.2996 524 36.5996 523.3 36.5996 522.5C36.5996 522.319 36.6355 522.144 36.7002 521.979V325.982C36.4331 325.701 36.2998 325.3 36.2998 324.9V250.3C36.2998 249.922 36.4583 249.544 36.7002 249.267V55.0205C36.6355 54.8564 36.5996 54.6812 36.5996 54.5C36.5996 53.7002 37.2996 53 38.0996 53H78.5996V21.5C78.5996 20.7002 79.2996 20 80.0996 20ZM81.5996 53H101.5C102.3 53 103 53.7002 103 54.5V74.3999H117.1V54.5C117.1 53.7002 117.8 53 118.6 53H140C140.8 53 141.5 53.7002 141.5 54.5V75.8999C141.5 76.6997 140.8 77.3999 140 77.3999H120.1V92.5H140C140.8 92.5 141.5 93.2002 141.5 94V115.4C141.5 116.3 140.8 116.9 140 116.9H118.6C117.8 116.9 117.1 116.2 117.1 115.4V95.5H103V115.4C103 116.3 102.3 116.9 101.5 116.9H80.0996C79.2996 116.9 78.5996 116.2 78.5996 115.4V94C78.5996 93.2002 79.2996 92.5 80.0996 92.5H99.9995V77.3999H80.0996C79.2996 77.3999 78.5996 76.6997 78.5996 75.8999V56H39.7002V250.095L76.2998 286.5C76.4475 286.647 76.5466 286.819 76.6091 287.003C76.6738 287.194 76.6997 287.397 76.6997 287.6C76.6997 288 76.4998 288.4 76.2998 288.7L39.7002 325.007V521H78.5996V501.1C78.5996 500.3 79.2996 499.6 80.0996 499.6H99.9995V484.5H80.0996C79.2996 484.5 78.5996 483.8 78.5996 483V461.6C78.5996 460.8 79.2996 460.1 80.0996 460.1H101.5C102.3 460.1 103 460.8 103 461.6V481.5H117.1V461.6C117.1 460.8 117.8 460.1 118.6 460.1H140C140.8 460.1 141.5 460.8 141.5 461.6V483C141.5 483.8 140.8 484.5 140 484.5H120.1V499.6H140C140.8 499.6 141.5 500.3 141.5 501.1V522.5C141.5 523.4 140.8 524 140 524H118.6C117.8 524 117.1 523.3 117.1 522.5V502.7H103V522.5C103 523.4 102.3 524 101.5 524H81.7002V564.8H909.4V524H889.5C888.7 524 888 523.3 888 522.5V502.7H873.9V522.5C873.9 523.4 873.2 524 872.4 524H851C850.2 524 849.5 523.3 849.5 522.5V501.1C849.5 500.3 850.2 499.6 851 499.6H870.9V484.5H851C850.2 484.5 849.5 483.8 849.5 483V461.6C849.5 460.8 850.2 460.1 851 460.1H872.4C873.2 460.1 873.9 460.8 873.9 461.6V481.5H888V461.6C888 460.8 888.7 460.1 889.5 460.1H910.9C911.7 460.1 912.4 460.8 912.4 461.6V483C912.4 483.8 911.7 484.5 910.9 484.5H891V499.6H910.9C911.7 499.6 912.4 500.3 912.4 501.1V521H950.5V325.604L939.8 315L913.4 288.7C913.1 288.4 913 288 913 287.6C913 287.406 913.047 287.212 913.118 287.03C913.152 286.944 913.191 286.86 913.233 286.78C913.285 286.68 913.343 286.586 913.4 286.5L950.5 249.598V54.2002H909.6V74.1001C909.6 74.8999 909 75.6001 908.1 75.6001H888.2V89.6001H908.1C908.9 89.6001 909.6 90.3003 909.6 91.1001V112.5C909.6 113.4 909 114 908.1 114H886.7C885.9 114 885.2 113.3 885.2 112.5V92.7002H870.1V112.5C870.1 113.4 869.4 114 868.6 114H847.2C846.4 114 845.7 113.3 845.7 112.5V91.1001C845.7 90.3003 846.4 89.6001 847.2 89.6001H867.1V75.6001H847.2C846.4 75.6001 845.7 74.8999 845.7 74.1001V52.7002C845.7 51.8999 846.4 51.2002 847.2 51.2002H868.6C869.4 51.2002 870.1 51.8999 870.1 52.7002V72.6001H885.2V52.7002C885.2 51.8999 885.9 51.2002 886.7 51.2002H906.6V23H81.5996V53ZM81.5996 56V74.3999H99.9995V56H81.5996ZM906.6 54.2002H888.2V72.6001H906.6V54.2002ZM909.4 521V502.6H903.56C903.391 502.665 903.203 502.7 903 502.7H891V521H909.4ZM99.9995 521V502.7H87.8997C87.8298 502.7 87.761 502.695 87.6934 502.685C87.5854 502.668 87.4805 502.64 87.3801 502.6H81.5996V521H99.9995ZM39.7002 254.298V266.796L59.4998 286.5C59.6628 286.663 59.7668 286.856 59.8279 287.062C59.8586 287.166 59.8784 287.273 59.8894 287.382L59.8931 287.423L59.8965 287.474C59.8987 287.516 59.8999 287.558 59.8999 287.6C59.8999 288 59.6997 288.4 59.4998 288.7L39.7002 308.404V320.902L73.1997 287.6L39.7002 254.298ZM56.3999 287.6L39.7002 270.998V304.202L56.3999 287.6ZM950.5 321.3V308.902L930.2 288.7C929.9 288.4 929.8 288 929.8 287.6C929.8 287.2 930 286.8 930.2 286.5L950.5 266.298V253.9L916.6 287.6L950.5 321.3ZM950.5 270.6L933.4 287.6L950.5 304.6V270.6ZM103 499.7H117.1V484.5H103V499.7ZM120.1 521V502.7H126.8C127.003 502.7 127.191 502.665 127.36 502.6H138.5V521H120.1ZM138.5 481.5H120.1V463.1H138.5V481.5ZM99.9995 463.1V481.5H81.5996V463.1H99.9995ZM870.9 481.5H852.5V463.1H870.9V481.5ZM873.9 484.5V499.7H888V484.5H873.9ZM870.9 502.7H864.1C864.046 502.7 863.992 502.697 863.938 502.69C863.915 502.688 863.892 502.685 863.869 502.681L863.811 502.67C863.788 502.665 863.766 502.66 863.744 502.653L863.698 502.641C863.676 502.634 863.654 502.627 863.632 502.619L863.581 502.6H852.5V521H870.9V502.7ZM891 481.5H909.4V463.1H891V481.5ZM867.1 92.7002V111H848.7V92.6001H857.381C857.447 92.6265 857.515 92.6479 857.585 92.6641L857.639 92.6753C857.724 92.6919 857.812 92.7002 857.9 92.7002H867.1ZM870.1 89.7002H885.2V75.6001H870.1V89.7002ZM888.2 92.7002V111H906.6V92.6001H900.02C899.856 92.6646 899.681 92.7002 899.5 92.7002H888.2ZM867.1 72.6001H848.7V54.2002H867.1V72.6001ZM120.1 95.5V113.9H138.5V95.5H120.1ZM117.1 92.5H103V77.3999H117.1V92.5ZM120.1 74.3999H138.5V56H120.1V74.3999ZM99.9995 95.5H81.5996V113.9H99.9995V95.5Z" fill-rule="evenodd"/></g><g filter="url(#d)"><path fill="url(#e)" d="M549.8 546.7H435.3V568H549.8V546.7Z"/></g><g filter="url(#f)"><path fill="url(#g)" d="M549.8 20H435.3V41.3H549.8V20Z"/></g><g filter="url(#h)"><path fill="url(#i)" d="M928.5 553.2H56.5C52.9 553.2 50 550.3 50 546.7V41.6001C50 38.0001 52.9 35.1001 56.5 35.1001H928.5C932.1 35.1001 935 38.0001 935 41.6001V546.7C935 550.2 932.1 553.2 928.5 553.2ZM63 540.2H922V48H63V540.2Z"/></g></g><defs><filter x="0.3" color-interpolation-filters="sRGB" y="0" width="990.101" xlink:type="simple" filterUnits="userSpaceOnUse" xlink:actuate="onLoad" id="a" height="620" xlink:show="other"><feFlood result="BackgroundImageFix" flood-opacity="0"/><feColorMatrix values="0 0 0 0 0 0 0 0 0 0 0 0 0 0 0 0 0 0 127 0" result="hardAlpha" in="SourceAlpha"/><feOffset dy="16"/><feGaussianBlur stdDeviation="18"/><feComposite in2="hardAlpha" operator="out"/><feColorMatrix values="0 0 0 0 0 0 0 0 0 0 0 0 0 0 0 0 0 0 0.25 0"/><feBlend result="effect1_dropShadow_13_2691" in2="BackgroundImageFix"/><feBlend result="shape" in2="effect1_dropShadow_13_2691" in="SourceGraphic"/></filter><filter x="33.3" color-interpolation-filters="sRGB" y="19" width="924.101" xlink:type="simple" filterUnits="userSpaceOnUse" xlink:actuate="onLoad" id="b" height="554.9" xlink:show="other"><feFlood result="BackgroundImageFix" flood-opacity="0"/><feColorMatrix values="0 0 0 0 0 0 0 0 0 0 0 0 0 0 0 0 0 0 127 0" result="hardAlpha" in="SourceAlpha"/><feOffset dy="3"/><feGaussianBlur stdDeviation="1.5"/><feComposite in2="hardAlpha" operator="out"/><feColorMatrix values="0 0 0 0 0 0 0 0 0 0 0 0 0 0 0 0 0 0 0.25 0"/><feBlend result="effect1_dropShadow_13_2691" in2="BackgroundImageFix"/><feBlend result="shape" in2="effect1_dropShadow_13_2691" in="SourceGraphic"/><feColorMatrix values="0 0 0 0 0 0 0 0 0 0 0 0 0 0 0 0 0 0 127 0" result="hardAlpha" in="SourceAlpha"/><feOffset dx="1" dy="1"/><feGaussianBlur stdDeviation="0.5"/><feComposite k2="-1" k3="1" operator="arithmetic" in2="hardAlpha"/><feColorMatrix values="0 0 0 0 1 0 0 0 0 1 0 0 0 0 1 0 0 0 0.43 0"/><feBlend result="effect2_innerShadow_13_2691" in2="shape"/><feColorMatrix values="0 0 0 0 0 0 0 0 0 0 0 0 0 0 0 0 0 0 127 0" result="hardAlpha" in="SourceAlpha"/><feOffset dy="-1"/><feGaussianBlur stdDeviation="0.5"/><feComposite k2="-1" k3="1" operator="arithmetic" in2="hardAlpha"/><feColorMatrix values="0 0 0 0 0.670833 0 0 0 0 0.351615 0 0 0 0 0.122986 0 0 0 0.54 0"/><feBlend result="effect3_innerShadow_13_2691" in2="effect2_innerShadow_13_2691"/></filter><filter x="435.3" color-interpolation-filters="sRGB" y="544.7" width="115.5" xlink:type="simple" filterUnits="userSpaceOnUse" xlink:actuate="onLoad" id="d" height="24.3" xlink:show="other"><feFlood result="BackgroundImageFix" flood-opacity="0"/><feBlend result="shape" in2="BackgroundImageFix" in="SourceGraphic"/><feColorMatrix values="0 0 0 0 0 0 0 0 0 0 0 0 0 0 0 0 0 0 127 0" result="hardAlpha" in="SourceAlpha"/><feOffset dx="1" dy="3"/><feGaussianBlur stdDeviation="0.5"/><feComposite k2="-1" k3="1" operator="arithmetic" in2="hardAlpha"/><feColorMatrix values="0 0 0 0 1 0 0 0 0 1 0 0 0 0 1 0 0 0 0.43 0"/><feBlend result="effect1_innerShadow_13_2691" in2="shape"/><feColorMatrix values="0 0 0 0 0 0 0 0 0 0 0 0 0 0 0 0 0 0 127 0" result="hardAlpha" in="SourceAlpha"/><feOffset dy="-2"/><feGaussianBlur stdDeviation="1.5"/><feComposite k2="-1" k3="1" operator="arithmetic" in2="hardAlpha"/><feColorMatrix values="0 0 0 0 0.670833 0 0 0 0 0.351615 0 0 0 0 0.122986 0 0 0 0.54 0"/><feBlend result="effect2_innerShadow_13_2691" in2="effect1_innerShadow_13_2691"/></filter><filter x="435.3" color-interpolation-filters="sRGB" y="18" width="115.5" xlink:type="simple" filterUnits="userSpaceOnUse" xlink:actuate="onLoad" id="f" height="24.3" xlink:show="other"><feFlood result="BackgroundImageFix" flood-opacity="0"/><feBlend result="shape" in2="BackgroundImageFix" in="SourceGraphic"/><feColorMatrix values="0 0 0 0 0 0 0 0 0 0 0 0 0 0 0 0 0 0 127 0" result="hardAlpha" in="SourceAlpha"/><feOffset dx="1" dy="3"/><feGaussianBlur stdDeviation="0.5"/><feComposite k2="-1" k3="1" operator="arithmetic" in2="hardAlpha"/><feColorMatrix values="0 0 0 0 1 0 0 0 0 1 0 0 0 0 1 0 0 0 0.43 0"/><feBlend result="effect1_innerShadow_13_2691" in2="shape"/><feColorMatrix values="0 0 0 0 0 0 0 0 0 0 0 0 0 0 0 0 0 0 127 0" result="hardAlpha" in="SourceAlpha"/><feOffset dy="-2"/><feGaussianBlur stdDeviation="1.5"/><feComposite k2="-1" k3="1" operator="arithmetic" in2="hardAlpha"/><feColorMatrix values="0 0 0 0 0.670833 0 0 0 0 0.351615 0 0 0 0 0.122986 0 0 0 0.54 0"/><feBlend result="effect2_innerShadow_13_2691" in2="effect1_innerShadow_13_2691"/></filter><filter x="50" color-interpolation-filters="sRGB" y="32.1" width="886" xlink:type="simple" filterUnits="userSpaceOnUse" xlink:actuate="onLoad" id="h" height="522.1" xlink:show="other"><feFlood result="BackgroundImageFix" flood-opacity="0"/><feBlend result="shape" in2="BackgroundImageFix" in="SourceGraphic"/><feColorMatrix values="0 0 0 0 0 0 0 0 0 0 0 0 0 0 0 0 0 0 127 0" result="hardAlpha" in="SourceAlpha"/><feOffset dx="1" dy="3"/><feGaussianBlur stdDeviation="0.5"/><feComposite k2="-1" k3="1" operator="arithmetic" in2="hardAlpha"/><feColorMatrix values="0 0 0 0 1 0 0 0 0 1 0 0 0 0 1 0 0 0 0.43 0"/><feBlend result="effect1_innerShadow_13_2691" in2="shape"/><feColorMatrix values="0 0 0 0 0 0 0 0 0 0 0 0 0 0 0 0 0 0 127 0" result="hardAlpha" in="SourceAlpha"/><feOffset dy="-4"/><feGaussianBlur stdDeviation="1.5"/><feComposite k2="-1" k3="1" operator="arithmetic" in2="hardAlpha"/><feColorMatrix values="0 0 0 0 0.670833 0 0 0 0 0.351615 0 0 0 0 0.122986 0 0 0 0.71 0"/><feBlend result="effect2_innerShadow_13_2691" in2="effect1_innerShadow_13_2691"/></filter><linearGradient x1="826.165" y1="109.919" x2="873.256" gradientUnits="userSpaceOnUse" y2="462.548" xlink:type="simple" xlink:actuate="onLoad" id="c" xlink:show="other"><stop stop-color="#e0925a"/><stop stop-color="#ffe6d9" offset="0.125"/><stop stop-color="#e0925a" offset="0.307"/><stop stop-color="#ffe6d9" offset="0.495"/><stop stop-color="#e0925a" offset="0.693"/><stop stop-color="#ffe6d9" offset="0.885"/><stop stop-color="#e0925a" offset="1"/></linearGradient><linearGradient x1="543.609" y1="547.414" x2="539.307" gradientUnits="userSpaceOnUse" y2="578.673" xlink:type="simple" xlink:actuate="onLoad" id="e" xlink:show="other"><stop stop-color="#e0925a"/><stop stop-color="#ffe6d9" offset="0.512"/><stop stop-color="#e0925a" offset="1"/></linearGradient><linearGradient x1="543.609" y1="20.714" x2="539.307" gradientUnits="userSpaceOnUse" y2="51.973" xlink:type="simple" xlink:actuate="onLoad" id="g" xlink:show="other"><stop stop-color="#e0925a"/><stop stop-color="#ffe6d9" offset="0.512"/><stop stop-color="#e0925a" offset="1"/></linearGradient><linearGradient x1="492.5" y1="43.262" x2="492.5" gradientUnits="userSpaceOnUse" y2="544.32" xlink:type="simple" xlink:actuate="onLoad" id="i" xlink:show="other"><stop stop-color="#e0925a"/><stop stop-color="#ffe6d9" offset="0.125"/><stop stop-color="#e0925a" offset="0.307"/><stop stop-color="#ffe6d9" offset="0.495"/><stop stop-color="#e0925a" offset="0.693"/><stop stop-color="#ffe6d9" offset="0.885"/><stop stop-color="#e0925a" offset="1"/></linearGradient></defs></svg>