<?xml version="1.0" encoding="UTF-8" standalone="no"?><svg xmlns="http://www.w3.org/2000/svg" xmlns:xlink="http://www.w3.org/1999/xlink" contentScriptType="text/ecmascript" fill="none" width="924" zoomAndPan="magnify" style="fill: none" contentStyleType="text/css" viewBox="0 0 924 862" height="862" preserveAspectRatio="xMidYMid meet" version="1"><g filter="url(#a)"><g filter="url(#b)"><path fill="url(#c)" d="M808.639 595.993C790.593 630.127 767.597 661.373 739.96 689.01C704.383 724.588 662.927 752.534 616.831 772.024C569.085 792.236 518.349 802.445 466.066 802.445C413.783 802.445 363.047 792.236 315.301 772.024C279.827 756.968 247.137 736.962 217.747 712.316H206.61C238.165 739.953 273.742 762.227 312.517 778.624C361.19 799.248 412.855 809.664 466.066 809.664C519.278 809.664 571.045 799.248 619.616 778.624C666.64 758.721 708.817 730.259 745.013 694.063C774.094 664.983 798.121 632.086 816.786 595.993H808.639V595.993ZM829.573 261.464C809.671 214.44 781.209 172.263 745.013 136.067C708.817 99.8706 666.537 71.4087 619.616 51.5061C570.942 30.9847 519.278 20.4663 466.066 20.4663C412.752 20.4663 361.087 30.8815 312.517 51.5061C265.493 71.4087 223.316 99.8706 187.12 136.067C169.176 154.01 153.089 173.5 139.064 194.228H147.83C160.926 175.356 175.776 157.619 192.276 141.12C227.853 105.542 269.308 77.5962 315.404 58.1061C363.15 37.894 413.886 27.6849 466.169 27.6849C518.453 27.6849 569.189 37.894 616.934 58.1061C663.03 77.5962 704.485 105.542 740.063 141.12C775.64 176.697 803.586 218.152 823.076 264.248C843.288 311.994 853.498 362.73 853.498 415.013C853.498 449.456 849.064 483.177 840.298 515.867H847.723C856.385 483.177 860.716 449.456 860.716 415.013C860.613 361.802 850.198 310.138 829.573 261.464ZM100.187 287.76H92.556C78.6344 328.597 71.519 371.289 71.519 415.117C71.519 463.378 80.0782 510.402 96.9903 554.951H104.724C87.3999 510.402 78.7376 463.378 78.7376 415.117C78.7376 371.289 85.9563 328.494 100.187 287.76ZM141.642 626.827H133.083C140.611 638.686 148.758 650.03 157.523 660.961V659.001H165.154C156.698 648.586 148.861 637.861 141.642 626.827Z"/></g><g filter="url(#d)"><g filter="url(#e)"><path fill="url(#f)" d="M779.559 595.994C763.884 623.012 744.601 648.277 721.914 670.964C653.543 739.335 562.692 776.974 466.066 776.974C391.199 776.974 319.735 754.39 259.615 712.419H257.862C278.692 727.063 301.173 739.437 324.788 749.543C369.544 768.415 417.083 778.109 466.066 778.109C515.05 778.109 562.589 768.518 607.344 749.543C650.553 731.291 689.327 705.098 722.738 671.789C745.529 648.999 764.915 623.631 780.796 596.097H779.559V595.994ZM800.39 273.839C782.137 230.631 755.944 191.856 722.635 158.548C689.327 125.239 650.45 99.0461 607.241 80.7934C562.486 61.922 514.946 52.2285 465.963 52.2285C416.98 52.2285 369.44 61.8189 324.685 80.7934C281.477 99.0461 242.703 125.239 209.291 158.548C197.948 169.891 187.532 181.853 177.839 194.331H179.076C188.563 182.06 198.876 170.407 209.91 159.27C278.28 90.8993 369.131 53.2597 465.757 53.2597C562.383 53.2597 653.234 90.8993 721.604 159.27C789.974 227.64 827.614 318.491 827.614 415.117C827.614 449.766 822.767 483.59 813.486 515.971H814.518C823.902 483.384 828.748 449.663 828.748 415.117C828.955 366.134 819.261 318.594 800.39 273.839ZM127.205 287.76H126.174C110.912 328.391 103.178 371.187 103.178 415.117C103.178 463.585 112.562 510.609 131.124 554.951H132.155C113.799 511.227 104.209 463.894 104.209 415.117C104.209 370.877 112.149 327.875 127.205 287.76ZM172.476 626.828H171.239C179.282 637.965 187.945 648.69 197.329 659.002H198.669C189.388 648.69 180.623 637.965 172.476 626.828Z"/></g></g><g filter="url(#g)"><path fill="url(#h)" d="M887.735 536.595C887.735 534.017 885.672 531.955 883.094 531.955H822.252C819.674 531.955 817.611 534.017 817.611 536.595C817.611 539.173 819.674 541.236 822.252 541.236C823.695 541.236 824.83 542.37 824.83 543.814V544.845C824.83 546.804 823.18 548.454 821.22 548.454H773.784C771.206 548.454 769.144 550.517 769.144 553.095C769.144 555.673 771.206 557.735 773.784 557.735H788.221C790.181 557.735 791.831 559.385 791.831 561.345V562.376C791.831 563.819 790.696 564.954 789.252 564.954C786.674 564.954 784.612 567.016 784.612 569.594C784.612 572.172 786.674 574.235 789.252 574.235H850.095C852.673 574.235 854.735 572.172 854.735 569.594C854.735 567.016 852.673 564.954 850.095 564.954H817.096C815.136 564.954 813.486 563.304 813.486 561.345C813.486 559.385 815.136 557.735 817.096 557.735H869.688C872.266 557.735 874.329 555.673 874.329 553.095C874.329 550.517 872.266 548.454 869.688 548.454H850.095C848.135 548.454 846.486 546.804 846.486 544.845C846.486 542.886 848.135 541.236 850.095 541.236H883.094C885.569 541.236 887.735 539.173 887.735 536.595Z"/></g><g filter="url(#i)"><path fill="url(#j)" d="M209.6 238.674H168.557C166.598 238.674 164.948 237.024 164.948 235.065C164.948 233.105 166.598 231.455 168.557 231.455H188.975C191.45 231.455 193.513 229.702 193.822 227.227C194.132 224.443 191.966 222.174 189.182 222.174H81.1094C78.6344 222.174 76.572 223.928 76.2627 226.402C75.9533 229.187 78.1189 231.455 80.9032 231.455H139.683C141.642 231.455 143.292 233.105 143.292 235.065C143.292 237.024 141.642 238.674 139.683 238.674H51.2038C48.7289 238.674 46.6665 240.427 46.3571 242.902C46.0477 245.686 48.2133 247.955 50.9976 247.955H106.684C108.643 247.955 110.293 249.605 110.293 251.564C110.293 253.524 108.643 255.174 106.684 255.174H68.7347C66.2597 255.174 64.1973 256.927 63.888 259.402C63.5786 262.186 65.7442 264.455 68.5285 264.455H168.351C170.826 264.455 172.889 262.702 173.198 260.227C173.507 257.442 171.342 255.174 168.557 255.174H135.558C133.599 255.174 131.949 253.524 131.949 251.564C131.949 249.605 133.599 247.955 135.558 247.955H209.806C212.488 247.955 214.653 245.583 214.447 242.902C214.138 240.427 211.972 238.674 209.6 238.674Z"/></g><g filter="url(#k)"><path fill="url(#l)" d="M293.645 660.755V658.796C293.645 656.939 292.098 655.393 290.242 655.393H231.771C229.915 655.393 228.368 656.939 228.368 658.796V660.755C228.368 662.611 229.915 664.158 231.771 664.158C233.628 664.158 235.174 665.705 235.174 667.561C235.174 669.417 233.628 670.964 231.771 670.964H186.707C184.851 670.964 183.304 672.511 183.304 674.367V676.327C183.304 678.183 184.851 679.73 186.707 679.73H201.144C203 679.73 204.547 681.276 204.547 683.132C204.547 684.989 203 686.536 201.144 686.536C199.288 686.536 197.741 688.082 197.741 689.939V691.898C197.741 693.754 199.288 695.301 201.144 695.301H259.614C261.471 695.301 263.018 693.754 263.018 691.898V689.939C263.018 688.082 261.471 686.536 259.614 686.536H227.956C226.1 686.536 224.553 684.989 224.553 683.132C224.553 681.276 226.1 679.73 227.956 679.73H277.867C279.724 679.73 281.27 678.183 281.27 676.327V674.367C281.27 672.511 279.724 670.964 277.867 670.964H258.686C256.83 670.964 255.283 669.417 255.283 667.561C255.283 665.705 256.83 664.158 258.686 664.158H290.345C292.098 664.055 293.645 662.611 293.645 660.755Z"/></g><g filter="url(#m)"><path fill="url(#n)" d="M303.751 694.785H278.279C275.908 694.785 273.948 692.826 273.948 690.454C273.948 688.082 275.908 686.123 278.279 686.123H303.751C306.122 686.123 308.082 688.082 308.082 690.454C308.082 692.826 306.122 694.785 303.751 694.785Z"/></g><g filter="url(#o)"><path fill="url(#p)" d="M762.544 574.235H737.072C734.7 574.235 732.741 572.276 732.741 569.904C732.741 567.532 734.7 565.573 737.072 565.573H762.544C764.915 565.573 766.874 567.532 766.874 569.904C766.978 572.276 765.018 574.235 762.544 574.235Z"/></g><g filter="url(#q)"><path fill="url(#r)" d="M219.396 586.403H158.761C156.801 586.403 155.151 584.753 155.151 582.794C155.151 580.835 156.801 579.185 158.761 579.185H198.772C201.247 579.185 203.31 577.432 203.619 574.957C203.928 572.172 201.763 569.904 198.978 569.904H71.3125C68.8376 569.904 66.7752 571.657 66.4658 574.132C66.1564 576.916 68.322 579.185 71.1063 579.185H129.886C131.846 579.185 133.495 580.835 133.495 582.794C133.495 584.753 131.846 586.403 129.886 586.403H41.4069C38.932 586.403 36.8696 588.156 36.5602 590.631C36.2509 593.416 38.4164 595.684 41.2008 595.684H96.887C98.8463 595.684 100.496 597.334 100.496 599.294C100.496 601.253 98.8463 602.903 96.887 602.903H58.9378C56.4629 602.903 54.4004 604.656 54.0911 607.131C53.7817 609.915 55.9473 612.184 58.7316 612.184H158.554C161.029 612.184 163.092 610.431 163.401 607.956C163.71 605.172 161.545 602.903 158.761 602.903H125.761C123.802 602.903 122.152 601.253 122.152 599.294C122.152 597.334 123.802 595.684 125.761 595.684H219.603C222.284 595.684 224.45 593.312 224.243 590.631C223.934 588.156 221.768 586.403 219.396 586.403Z"/></g></g><defs><filter x="0.531" color-interpolation-filters="sRGB" y="0.466" width="923.204" xlink:type="simple" filterUnits="userSpaceOnUse" xlink:actuate="onLoad" id="a" height="861.197" xlink:show="other"><feFlood result="BackgroundImageFix" flood-opacity="0"/><feColorMatrix values="0 0 0 0 0 0 0 0 0 0 0 0 0 0 0 0 0 0 127 0" result="hardAlpha" in="SourceAlpha"/><feOffset dy="16"/><feGaussianBlur stdDeviation="18"/><feComposite in2="hardAlpha" operator="out"/><feColorMatrix values="0 0 0 0 0 0 0 0 0 0 0 0 0 0 0 0 0 0 0.25 0"/><feBlend result="effect1_dropShadow_1_1694" in2="BackgroundImageFix"/><feBlend result="shape" in2="effect1_dropShadow_1_1694" in="SourceGraphic"/></filter><filter x="71.519" color-interpolation-filters="sRGB" y="17.466" width="790.197" xlink:type="simple" filterUnits="userSpaceOnUse" xlink:actuate="onLoad" id="b" height="793.197" xlink:show="other"><feFlood result="BackgroundImageFix" flood-opacity="0"/><feBlend result="shape" in2="BackgroundImageFix" in="SourceGraphic"/><feColorMatrix values="0 0 0 0 0 0 0 0 0 0 0 0 0 0 0 0 0 0 127 0" result="hardAlpha" in="SourceAlpha"/><feOffset dx="1" dy="3"/><feGaussianBlur stdDeviation="0.5"/><feComposite k2="-1" k3="1" operator="arithmetic" in2="hardAlpha"/><feColorMatrix values="0 0 0 0 1 0 0 0 0 1 0 0 0 0 1 0 0 0 0.43 0"/><feBlend result="effect1_innerShadow_1_1694" in2="shape"/><feColorMatrix values="0 0 0 0 0 0 0 0 0 0 0 0 0 0 0 0 0 0 127 0" result="hardAlpha" in="SourceAlpha"/><feOffset dy="-4"/><feGaussianBlur stdDeviation="1.5"/><feComposite k2="-1" k3="1" operator="arithmetic" in2="hardAlpha"/><feColorMatrix values="0 0 0 0 0.670833 0 0 0 0 0.351615 0 0 0 0 0.122986 0 0 0 0.71 0"/><feBlend result="effect2_innerShadow_1_1694" in2="effect1_innerShadow_1_1694"/></filter><filter x="100.178" color-interpolation-filters="sRGB" y="51.228" width="731.574" xlink:type="simple" filterUnits="userSpaceOnUse" xlink:actuate="onLoad" id="d" height="732.88" xlink:show="other"><feFlood result="BackgroundImageFix" flood-opacity="0"/><feColorMatrix values="0 0 0 0 0 0 0 0 0 0 0 0 0 0 0 0 0 0 127 0" result="hardAlpha" in="SourceAlpha"/><feOffset dy="3"/><feGaussianBlur stdDeviation="1.5"/><feComposite in2="hardAlpha" operator="out"/><feColorMatrix values="0 0 0 0 0 0 0 0 0 0 0 0 0 0 0 0 0 0 0.25 0"/><feBlend result="effect1_dropShadow_1_1694" in2="BackgroundImageFix"/><feBlend result="shape" in2="effect1_dropShadow_1_1694" in="SourceGraphic"/><feColorMatrix values="0 0 0 0 0 0 0 0 0 0 0 0 0 0 0 0 0 0 127 0" result="hardAlpha" in="SourceAlpha"/><feOffset dx="1" dy="1"/><feGaussianBlur stdDeviation="0.5"/><feComposite k2="-1" k3="1" operator="arithmetic" in2="hardAlpha"/><feColorMatrix values="0 0 0 0 1 0 0 0 0 1 0 0 0 0 1 0 0 0 0.43 0"/><feBlend result="effect2_innerShadow_1_1694" in2="shape"/><feColorMatrix values="0 0 0 0 0 0 0 0 0 0 0 0 0 0 0 0 0 0 127 0" result="hardAlpha" in="SourceAlpha"/><feOffset dy="-1"/><feGaussianBlur stdDeviation="0.5"/><feComposite k2="-1" k3="1" operator="arithmetic" in2="hardAlpha"/><feColorMatrix values="0 0 0 0 0.670833 0 0 0 0 0.351615 0 0 0 0 0.122986 0 0 0 0.54 0"/><feBlend result="effect3_innerShadow_1_1694" in2="effect2_innerShadow_1_1694"/></filter><filter x="100.178" color-interpolation-filters="sRGB" y="51.228" width="731.574" xlink:type="simple" filterUnits="userSpaceOnUse" xlink:actuate="onLoad" id="e" height="732.88" xlink:show="other"><feFlood result="BackgroundImageFix" flood-opacity="0"/><feColorMatrix values="0 0 0 0 0 0 0 0 0 0 0 0 0 0 0 0 0 0 127 0" result="hardAlpha" in="SourceAlpha"/><feOffset dy="3"/><feGaussianBlur stdDeviation="1.5"/><feComposite in2="hardAlpha" operator="out"/><feColorMatrix values="0 0 0 0 0 0 0 0 0 0 0 0 0 0 0 0 0 0 0.25 0"/><feBlend result="effect1_dropShadow_1_1694" in2="BackgroundImageFix"/><feBlend result="shape" in2="effect1_dropShadow_1_1694" in="SourceGraphic"/><feColorMatrix values="0 0 0 0 0 0 0 0 0 0 0 0 0 0 0 0 0 0 127 0" result="hardAlpha" in="SourceAlpha"/><feOffset dx="1" dy="1"/><feGaussianBlur stdDeviation="0.5"/><feComposite k2="-1" k3="1" operator="arithmetic" in2="hardAlpha"/><feColorMatrix values="0 0 0 0 1 0 0 0 0 1 0 0 0 0 1 0 0 0 0.43 0"/><feBlend result="effect2_innerShadow_1_1694" in2="shape"/><feColorMatrix values="0 0 0 0 0 0 0 0 0 0 0 0 0 0 0 0 0 0 127 0" result="hardAlpha" in="SourceAlpha"/><feOffset dy="-1"/><feGaussianBlur stdDeviation="0.5"/><feComposite k2="-1" k3="1" operator="arithmetic" in2="hardAlpha"/><feColorMatrix values="0 0 0 0 0.670833 0 0 0 0 0.351615 0 0 0 0 0.122986 0 0 0 0.54 0"/><feBlend result="effect3_innerShadow_1_1694" in2="effect2_innerShadow_1_1694"/></filter><filter x="769.144" color-interpolation-filters="sRGB" y="529.955" width="119.591" xlink:type="simple" filterUnits="userSpaceOnUse" xlink:actuate="onLoad" id="g" height="45.28" xlink:show="other"><feFlood result="BackgroundImageFix" flood-opacity="0"/><feBlend result="shape" in2="BackgroundImageFix" in="SourceGraphic"/><feColorMatrix values="0 0 0 0 0 0 0 0 0 0 0 0 0 0 0 0 0 0 127 0" result="hardAlpha" in="SourceAlpha"/><feOffset dx="1" dy="3"/><feGaussianBlur stdDeviation="0.5"/><feComposite k2="-1" k3="1" operator="arithmetic" in2="hardAlpha"/><feColorMatrix values="0 0 0 0 1 0 0 0 0 1 0 0 0 0 1 0 0 0 0.43 0"/><feBlend result="effect1_innerShadow_1_1694" in2="shape"/><feColorMatrix values="0 0 0 0 0 0 0 0 0 0 0 0 0 0 0 0 0 0 127 0" result="hardAlpha" in="SourceAlpha"/><feOffset dy="-2"/><feGaussianBlur stdDeviation="1.5"/><feComposite k2="-1" k3="1" operator="arithmetic" in2="hardAlpha"/><feColorMatrix values="0 0 0 0 0.670833 0 0 0 0 0.351615 0 0 0 0 0.122986 0 0 0 0.54 0"/><feBlend result="effect2_innerShadow_1_1694" in2="effect1_innerShadow_1_1694"/></filter><filter x="46.328" color-interpolation-filters="sRGB" y="220.174" width="169.133" xlink:type="simple" filterUnits="userSpaceOnUse" xlink:actuate="onLoad" id="i" height="45.28" xlink:show="other"><feFlood result="BackgroundImageFix" flood-opacity="0"/><feBlend result="shape" in2="BackgroundImageFix" in="SourceGraphic"/><feColorMatrix values="0 0 0 0 0 0 0 0 0 0 0 0 0 0 0 0 0 0 127 0" result="hardAlpha" in="SourceAlpha"/><feOffset dx="1" dy="3"/><feGaussianBlur stdDeviation="0.5"/><feComposite k2="-1" k3="1" operator="arithmetic" in2="hardAlpha"/><feColorMatrix values="0 0 0 0 1 0 0 0 0 1 0 0 0 0 1 0 0 0 0.43 0"/><feBlend result="effect1_innerShadow_1_1694" in2="shape"/><feColorMatrix values="0 0 0 0 0 0 0 0 0 0 0 0 0 0 0 0 0 0 127 0" result="hardAlpha" in="SourceAlpha"/><feOffset dy="-2"/><feGaussianBlur stdDeviation="1.5"/><feComposite k2="-1" k3="1" operator="arithmetic" in2="hardAlpha"/><feColorMatrix values="0 0 0 0 0.670833 0 0 0 0 0.351615 0 0 0 0 0.122986 0 0 0 0.54 0"/><feBlend result="effect2_innerShadow_1_1694" in2="effect1_innerShadow_1_1694"/></filter><filter x="183.304" color-interpolation-filters="sRGB" y="653.393" width="111.341" xlink:type="simple" filterUnits="userSpaceOnUse" xlink:actuate="onLoad" id="k" height="42.909" xlink:show="other"><feFlood result="BackgroundImageFix" flood-opacity="0"/><feBlend result="shape" in2="BackgroundImageFix" in="SourceGraphic"/><feColorMatrix values="0 0 0 0 0 0 0 0 0 0 0 0 0 0 0 0 0 0 127 0" result="hardAlpha" in="SourceAlpha"/><feOffset dx="1" dy="3"/><feGaussianBlur stdDeviation="0.5"/><feComposite k2="-1" k3="1" operator="arithmetic" in2="hardAlpha"/><feColorMatrix values="0 0 0 0 1 0 0 0 0 1 0 0 0 0 1 0 0 0 0.43 0"/><feBlend result="effect1_innerShadow_1_1694" in2="shape"/><feColorMatrix values="0 0 0 0 0 0 0 0 0 0 0 0 0 0 0 0 0 0 127 0" result="hardAlpha" in="SourceAlpha"/><feOffset dy="-2"/><feGaussianBlur stdDeviation="1.5"/><feComposite k2="-1" k3="1" operator="arithmetic" in2="hardAlpha"/><feColorMatrix values="0 0 0 0 0.670833 0 0 0 0 0.351615 0 0 0 0 0.122986 0 0 0 0.54 0"/><feBlend result="effect2_innerShadow_1_1694" in2="effect1_innerShadow_1_1694"/></filter><filter x="273.948" color-interpolation-filters="sRGB" y="684.123" width="35.133" xlink:type="simple" filterUnits="userSpaceOnUse" xlink:actuate="onLoad" id="m" height="11.663" xlink:show="other"><feFlood result="BackgroundImageFix" flood-opacity="0"/><feBlend result="shape" in2="BackgroundImageFix" in="SourceGraphic"/><feColorMatrix values="0 0 0 0 0 0 0 0 0 0 0 0 0 0 0 0 0 0 127 0" result="hardAlpha" in="SourceAlpha"/><feOffset dx="1" dy="3"/><feGaussianBlur stdDeviation="0.5"/><feComposite k2="-1" k3="1" operator="arithmetic" in2="hardAlpha"/><feColorMatrix values="0 0 0 0 1 0 0 0 0 1 0 0 0 0 1 0 0 0 0.43 0"/><feBlend result="effect1_innerShadow_1_1694" in2="shape"/><feColorMatrix values="0 0 0 0 0 0 0 0 0 0 0 0 0 0 0 0 0 0 127 0" result="hardAlpha" in="SourceAlpha"/><feOffset dy="-2"/><feGaussianBlur stdDeviation="1.5"/><feComposite k2="-1" k3="1" operator="arithmetic" in2="hardAlpha"/><feColorMatrix values="0 0 0 0 0.670833 0 0 0 0 0.351615 0 0 0 0 0.122986 0 0 0 0.54 0"/><feBlend result="effect2_innerShadow_1_1694" in2="effect1_innerShadow_1_1694"/></filter><filter x="732.741" color-interpolation-filters="sRGB" y="563.573" width="35.137" xlink:type="simple" filterUnits="userSpaceOnUse" xlink:actuate="onLoad" id="o" height="11.663" xlink:show="other"><feFlood result="BackgroundImageFix" flood-opacity="0"/><feBlend result="shape" in2="BackgroundImageFix" in="SourceGraphic"/><feColorMatrix values="0 0 0 0 0 0 0 0 0 0 0 0 0 0 0 0 0 0 127 0" result="hardAlpha" in="SourceAlpha"/><feOffset dx="1" dy="3"/><feGaussianBlur stdDeviation="0.5"/><feComposite k2="-1" k3="1" operator="arithmetic" in2="hardAlpha"/><feColorMatrix values="0 0 0 0 1 0 0 0 0 1 0 0 0 0 1 0 0 0 0.43 0"/><feBlend result="effect1_innerShadow_1_1694" in2="shape"/><feColorMatrix values="0 0 0 0 0 0 0 0 0 0 0 0 0 0 0 0 0 0 127 0" result="hardAlpha" in="SourceAlpha"/><feOffset dy="-2"/><feGaussianBlur stdDeviation="1.5"/><feComposite k2="-1" k3="1" operator="arithmetic" in2="hardAlpha"/><feColorMatrix values="0 0 0 0 0.670833 0 0 0 0 0.351615 0 0 0 0 0.122986 0 0 0 0.54 0"/><feBlend result="effect2_innerShadow_1_1694" in2="effect1_innerShadow_1_1694"/></filter><filter x="36.531" color-interpolation-filters="sRGB" y="567.904" width="188.726" xlink:type="simple" filterUnits="userSpaceOnUse" xlink:actuate="onLoad" id="q" height="45.28" xlink:show="other"><feFlood result="BackgroundImageFix" flood-opacity="0"/><feBlend result="shape" in2="BackgroundImageFix" in="SourceGraphic"/><feColorMatrix values="0 0 0 0 0 0 0 0 0 0 0 0 0 0 0 0 0 0 127 0" result="hardAlpha" in="SourceAlpha"/><feOffset dx="1" dy="3"/><feGaussianBlur stdDeviation="0.5"/><feComposite k2="-1" k3="1" operator="arithmetic" in2="hardAlpha"/><feColorMatrix values="0 0 0 0 1 0 0 0 0 1 0 0 0 0 1 0 0 0 0.43 0"/><feBlend result="effect1_innerShadow_1_1694" in2="shape"/><feColorMatrix values="0 0 0 0 0 0 0 0 0 0 0 0 0 0 0 0 0 0 127 0" result="hardAlpha" in="SourceAlpha"/><feOffset dy="-2"/><feGaussianBlur stdDeviation="1.5"/><feComposite k2="-1" k3="1" operator="arithmetic" in2="hardAlpha"/><feColorMatrix values="0 0 0 0 0.670833 0 0 0 0 0.351615 0 0 0 0 0.122986 0 0 0 0.54 0"/><feBlend result="effect2_innerShadow_1_1694" in2="effect1_innerShadow_1_1694"/></filter><linearGradient x1="466.118" y1="32.898" x2="466.118" gradientUnits="userSpaceOnUse" y2="796.137" xlink:type="simple" xlink:actuate="onLoad" id="c" xlink:show="other"><stop stop-color="#e0925a"/><stop stop-color="#ffe6d9" offset="0.125"/><stop stop-color="#e0925a" offset="0.307"/><stop stop-color="#ffe6d9" offset="0.495"/><stop stop-color="#e0925a" offset="0.693"/><stop stop-color="#ffe6d9" offset="0.885"/><stop stop-color="#e0925a" offset="1"/></linearGradient><linearGradient x1="268.441" y1="12.299" x2="738.976" gradientUnits="userSpaceOnUse" y2="737.354" xlink:type="simple" xlink:actuate="onLoad" id="f" xlink:show="other"><stop stop-color="#e0925a"/><stop stop-color="#ffe6d9" offset="0.125"/><stop stop-color="#e0925a" offset="0.307"/><stop stop-color="#ffe6d9" offset="0.495"/><stop stop-color="#e0925a" offset="0.693"/><stop stop-color="#ffe6d9" offset="0.885"/><stop stop-color="#e0925a" offset="1"/></linearGradient><linearGradient x1="881.322" y1="533.372" x2="865.732" gradientUnits="userSpaceOnUse" y2="592.484" xlink:type="simple" xlink:actuate="onLoad" id="h" xlink:show="other"><stop stop-color="#e0925a"/><stop stop-color="#ffe6d9" offset="0.512"/><stop stop-color="#e0925a" offset="1"/></linearGradient><linearGradient x1="205.369" y1="223.591" x2="194.002" gradientUnits="userSpaceOnUse" y2="284.701" xlink:type="simple" xlink:actuate="onLoad" id="j" xlink:show="other"><stop stop-color="#e0925a"/><stop stop-color="#ffe6d9" offset="0.512"/><stop stop-color="#e0925a" offset="1"/></linearGradient><linearGradient x1="287.679" y1="656.73" x2="272.778" gradientUnits="userSpaceOnUse" y2="712.421" xlink:type="simple" xlink:actuate="onLoad" id="l" xlink:show="other"><stop stop-color="#e0925a"/><stop stop-color="#ffe6d9" offset="0.512"/><stop stop-color="#e0925a" offset="1"/></linearGradient><linearGradient x1="306.236" y1="686.413" x2="303.887" gradientUnits="userSpaceOnUse" y2="698.926" xlink:type="simple" xlink:actuate="onLoad" id="n" xlink:show="other"><stop stop-color="#e0925a"/><stop stop-color="#ffe6d9" offset="0.512"/><stop stop-color="#e0925a" offset="1"/></linearGradient><linearGradient x1="765.032" y1="565.863" x2="762.684" gradientUnits="userSpaceOnUse" y2="578.376" xlink:type="simple" xlink:actuate="onLoad" id="p" xlink:show="other"><stop stop-color="#e0925a"/><stop stop-color="#ffe6d9" offset="0.512"/><stop stop-color="#e0925a" offset="1"/></linearGradient><linearGradient x1="214.106" y1="571.321" x2="203.857" gradientUnits="userSpaceOnUse" y2="632.837" xlink:type="simple" xlink:actuate="onLoad" id="r" xlink:show="other"><stop stop-color="#e0925a"/><stop stop-color="#ffe6d9" offset="0.512"/><stop stop-color="#e0925a" offset="1"/></linearGradient></defs></svg>